<?xml version="1.0" encoding="iso-8859-1"?>
<!-- Uploaded to: SVG Repo, www.svgrepo.com, Generator: SVG Repo Mixer Tools -->
<svg height="800px" width="800px" version="1.1" id="Capa_1" xmlns="http://www.w3.org/2000/svg" xmlns:xlink="http://www.w3.org/1999/xlink" 
	 viewBox="0 0 15.651 15.651" xml:space="preserve">
<g>
	<path style="fill:#030104;" d="M14.711,9.084c1.383-2.103,1.22-4.911-0.363-6.78c0.188-0.528,0.216-1.363-0.638-1.93
		c-0.859-0.571-1.603-0.239-2.007,0.131c-2.324-0.73-4.978,0.222-6.396,2.332L3.685,5.278C3.213,5.986,2.731,6.045,1.854,6.151
		c-0.356,0.041-0.759,0.09-1.219,0.194C0.611,6.35,0.591,6.361,0.569,6.37c-0.22,0.028-0.387,0.107-0.484,0.253
		C-0.548,7.576,2.468,10.151,5,11.922c-0.422,0.501-0.54,1.22-0.24,1.849c0.409,0.859,1.437,1.223,2.296,0.813
		c0.382-0.182,0.658-0.49,0.82-0.848c2.309,1.311,4.773,2.361,5.291,1.582c0.069-0.104,0.093-0.227,0.08-0.366
		c0.026-0.064,0.036-0.138,0.022-0.21c-0.088-0.496-0.212-0.896-0.321-1.25c-0.246-0.799-0.369-1.2,0.085-1.884L14.711,9.084z
		 M0.845,7.099c0.004-0.027,0.008-0.054,0.021-0.074c0.269-0.404,2.617,0.356,5.917,2.464L5.92,11.354
		c-0.118,0.027-0.234,0.066-0.348,0.12c-0.042,0.021-0.077,0.048-0.117,0.07C2.375,9.421,0.763,7.62,0.845,7.099z M12.493,14.753
		c-0.019,0.028-0.049,0.05-0.087,0.066c-0.428,0.188-2.066-0.336-4.383-1.655c0.023-0.292-0.021-0.593-0.156-0.877
		c-0.039-0.082-0.09-0.158-0.14-0.231l0.68-1.468C11.307,12.663,12.748,14.368,12.493,14.753z"/>
</g>
</svg>