<?xml version="1.0" encoding="utf-8"?>
<!-- Generator: Adobe Illustrator 27.5.0, SVG Export Plug-In . SVG Version: 6.00 Build 0)  -->
<svg version="1.1" xmlns="http://www.w3.org/2000/svg" xmlns:xlink="http://www.w3.org/1999/xlink" x="0px" y="0px"
	 viewBox="0 0 2200 2200" style="enable-background:new 0 0 2200 2200;" xml:space="preserve">
<g id="background">
	<rect y="0" style="fill:#FFFFFF;" width="2200" height="2200"/>
</g>
<g id="Objects">
	<g>
		<g>
			<path style="fill:#22488C;" d="M491.857,724.595c-175.775,0-318.275,41.18-318.275,91.981V967.73
				c0,50.801,142.5,91.981,318.275,91.981s318.275-41.18,318.275-91.981V816.576C810.132,765.774,667.632,724.595,491.857,724.595z
				 M491.857,884.149c-157.556,0-285.279-30.255-285.279-67.574s127.723-67.574,285.279-67.574s285.279,30.255,285.279,67.574
				S649.413,884.149,491.857,884.149z"/>
			<path style="fill:#22488C;" d="M810.132,1024.423v151.155c0,50.801-142.495,91.981-318.275,91.981s-318.275-41.18-318.275-91.981
				v-151.155c0,50.801,142.495,91.981,318.275,91.981S810.132,1075.224,810.132,1024.423z"/>
			<path style="fill:#22488C;" d="M810.132,1232.27v151.155c0,50.801-142.495,91.981-318.275,91.981s-318.275-41.18-318.275-91.981
				V1232.27c0,50.801,142.495,91.981,318.275,91.981S810.132,1283.071,810.132,1232.27z"/>
		</g>
		<g>
			<path style="fill:#22488C;" d="M1708.143,724.595c-175.775,0-318.275,41.18-318.275,91.981V967.73
				c0,50.801,142.5,91.981,318.275,91.981s318.275-41.18,318.275-91.981V816.576
				C2026.417,765.774,1883.917,724.595,1708.143,724.595z M1708.143,884.149c-157.556,0-285.279-30.255-285.279-67.574
				s127.723-67.574,285.279-67.574s285.279,30.255,285.279,67.574S1865.698,884.149,1708.143,884.149z"/>
			<path style="fill:#22488C;" d="M2026.417,1024.423v151.155c0,50.801-142.495,91.981-318.275,91.981
				s-318.275-41.18-318.275-91.981v-151.155c0,50.801,142.495,91.981,318.275,91.981S2026.417,1075.224,2026.417,1024.423z"/>
			<path style="fill:#22488C;" d="M2026.417,1232.27v151.155c0,50.801-142.495,91.981-318.275,91.981s-318.275-41.18-318.275-91.981
				V1232.27c0,50.801,142.495,91.981,318.275,91.981S2026.417,1283.071,2026.417,1232.27z"/>
		</g>
		<g>
			<g>
				<path style="fill:#1F92CC;" d="M821.337,593.933c-15.574,16.869-23.737,28.665-24.077,29.159
					c-4.889,7.104-3.094,16.816,4.003,21.714c2.707,1.869,5.797,2.764,8.857,2.764c4.961,0,9.842-2.356,12.877-6.742
					c0.072-0.105,7.389-10.618,21.306-25.693c5.854-6.342,5.46-16.229-0.882-22.083
					C837.081,587.198,827.193,587.593,821.337,593.933z"/>
				<path style="fill:#1F92CC;" d="M890.362,533.928c-8.223,5.704-16.387,11.821-24.263,18.178
					c-6.716,5.421-7.765,15.26-2.344,21.977c3.088,3.825,7.609,5.812,12.169,5.812c3.447,0,6.917-1.134,9.807-3.468
					c7.29-5.885,14.841-11.543,22.446-16.818c7.092-4.919,8.853-14.657,3.933-21.748
					C907.19,530.771,897.456,529.008,890.362,533.928z"/>
				<path style="fill:#1F92CC;" d="M1389.866,499.455c-8.631,0-15.628,6.997-15.628,15.628v74.138
					c-16.17-16.956-39.091-38.06-68.451-57.936c-63.234-42.809-132.471-64.514-205.785-64.514
					c-55.709,0-109.61,12.744-160.209,37.879c-7.73,3.84-10.883,13.219-7.044,20.949c3.839,7.729,13.217,10.883,20.948,7.044
					c46.24-22.97,95.464-34.616,146.305-34.616c66.954,0,130.296,19.898,188.263,59.141c29.898,20.24,52.493,41.752,67.48,58.001
					l-82.147-2.748c-8.671-0.295-15.854,6.471-16.142,15.097c-0.289,8.626,6.47,15.853,15.096,16.142l116.791,3.907
					c0.175,0.006,0.349,0.009,0.523,0.009c4.047,0,7.945-1.571,10.864-4.394c3.044-2.944,4.764-6.998,4.764-11.234V515.083
					C1405.494,506.452,1398.497,499.455,1389.866,499.455z"/>
			</g>
			<g>
				<path style="fill:#1F92CC;" d="M1378.663,1606.067c15.574-16.869,23.737-28.665,24.077-29.159
					c4.889-7.104,3.094-16.816-4.003-21.714c-2.707-1.869-5.797-2.764-8.857-2.764c-4.961,0-9.842,2.356-12.877,6.741
					c-0.072,0.105-7.389,10.619-21.306,25.693c-5.854,6.342-5.46,16.229,0.882,22.083
					C1362.92,1612.802,1372.807,1612.407,1378.663,1606.067z"/>
				<path style="fill:#1F92CC;" d="M1309.639,1666.072c8.223-5.704,16.387-11.821,24.263-18.179
					c6.716-5.421,7.765-15.26,2.344-21.977c-3.088-3.825-7.609-5.812-12.17-5.812c-3.447,0-6.917,1.134-9.807,3.468
					c-7.29,5.885-14.841,11.543-22.446,16.818c-7.092,4.919-8.853,14.657-3.933,21.748
					C1292.81,1669.229,1302.544,1670.992,1309.639,1666.072z"/>
				<path style="fill:#1F92CC;" d="M810.134,1700.545c8.631,0,15.628-6.997,15.628-15.628v-74.139
					c16.17,16.956,39.091,38.06,68.451,57.936c63.235,42.809,132.471,64.515,205.785,64.515c55.709,0,109.61-12.744,160.209-37.879
					c7.73-3.84,10.883-13.219,7.044-20.949c-3.839-7.729-13.218-10.882-20.948-7.044c-46.24,22.97-95.464,34.616-146.305,34.616
					c-66.954,0-130.296-19.898-188.263-59.141c-29.898-20.24-52.493-41.752-67.48-58.001l82.147,2.748
					c8.671,0.295,15.854-6.471,16.142-15.097c0.289-8.626-6.47-15.853-15.096-16.142l-116.791-3.907
					c-0.175-0.006-0.349-0.009-0.523-0.009c-4.047,0-7.945,1.571-10.864,4.394c-3.044,2.944-4.764,6.998-4.764,11.234v116.865
					C794.506,1693.548,801.503,1700.545,810.134,1700.545z"/>
			</g>
		</g>
	</g>
</g>
</svg>
