<?xml version="1.0" encoding="utf-8"?>
<!-- Generator: Adobe Illustrator 27.5.0, SVG Export Plug-In . SVG Version: 6.00 Build 0)  -->
<svg version="1.1" xmlns="http://www.w3.org/2000/svg" xmlns:xlink="http://www.w3.org/1999/xlink" x="0px" y="0px"
	 viewBox="0 0 500 500" style="enable-background:new 0 0 500 500;" xml:space="preserve">
<g id="Floor">
	<path id="Floor_9_" style="fill:#F0F0F0;" d="M107.003,416.196c80.693,48.763,211.523,48.764,292.215,0.001
		c80.693-48.764,80.693-127.824,0-176.587c-80.693-48.763-211.523-48.763-292.216-0.001
		C26.31,288.372,26.31,367.433,107.003,416.196z"/>
</g>
<g id="Shadow">
	<path id="Floor_1_" style="fill:#E0E0E0;" d="M406.754,360.975c7.377,4.458,19.337,4.458,26.714,0
		c7.377-4.458,7.377-11.686,0-16.143c-7.377-4.458-19.337-4.458-26.714,0C399.377,349.289,399.377,356.517,406.754,360.975z"/>
</g>
<g id="Plants">
	<g id="Plants_13_">
		<g id="XMLID_2536_">
			<g id="XMLID_2539_">
				<path id="XMLID_2543_" style="fill:#27DEBF;" d="M73.241,302.201c0,0-1.702-14.971-9.149-26.591
					c-7.447-11.619-17.68-18.871-27.228-19.626c-9.548-0.755-17.259,8.029-7.043,14.062c10.216,6.032,28.366,12.188,36.718,34.75
					L73.241,302.201z"/>
				<path id="XMLID_2541_" style="fill:#263238;" d="M73.241,302.201c0,0-1.702-14.971-9.149-26.591
					c-7.447-11.619-17.68-18.871-27.228-19.626c-9.548-0.755-17.259,8.029-7.043,14.062c10.216,6.032,28.366,12.188,36.718,34.75
					L73.241,302.201z"/>
			</g>
			<g id="XMLID_2537_">
				<path id="XMLID_2538_" style="fill:#FFFFFF;" d="M70.441,298.313c0.034-0.006,0.068-0.016,0.101-0.03
					c0.261-0.106,0.387-0.403,0.28-0.664c-10.075-24.814-29.257-35.175-37.992-37.186c-0.273-0.065-0.547,0.108-0.611,0.382
					c-0.063,0.275,0.108,0.549,0.382,0.612c8.557,1.97,27.359,12.152,37.276,36.576C69.971,298.231,70.209,298.355,70.441,298.313z"
					/>
			</g>
		</g>
		<g id="XMLID_2528_">
			<g id="XMLID_2533_">
				<g id="XMLID_2534_">
					<path id="XMLID_2535_" style="fill:#37474F;" d="M19.44,298.606c0.865,1.949,2.992,2.964,4.972,3.762
						c1.969,0.79,4.127,1.653,5.197,3.496c2.155,3.722-1.383,8.956,0.93,12.58c0.971,1.52,2.777,2.32,4.552,2.639
						c1.475,0.276,2.977,0.274,4.473,0.4c0.72-0.015,1.432-0.067,2.126-0.165c2.052-0.298,4.279-0.394,6.159,0.656
						c2.958,1.663,3.867,5.398,5.664,8.279c2.154,3.449,5.963,5.707,9.965,6.251c1.33,0.176,3.803,0.415,5.157-0.34
						c0.107-0.059,0.194-0.114,0.28-0.178c0.009-0.002,0.017-0.013,0.025-0.024c0.186-0.21,0.42-0.477,0.52-0.622
						c0.025-0.024,0.039-0.056,0.053-0.088c0.524-1.93-0.332-3.939-0.366-5.933c-0.004-0.126-0.005-0.243,0.002-0.362
						c0.082-2.318,0.148-4.622,0.202-6.934c0.108-4.254,0.156-8.516,0.127-12.774c-0.029-2.765,0.304-5.792-0.866-8.397
						c-1.296-2.865-4.517-2.928-5.735-5.739c-0.488-1.12-0.747-2.322-1.219-3.454c-1.409-3.322-4.822-5.711-8.435-5.888
						c-5.623-0.286-10.671,4.268-16.289,3.854c-1.455-0.114-2.873-0.556-4.306-0.82c-4.556-0.853-9.821,0.444-12.382,4.299
						C19.175,294.714,18.657,296.838,19.44,298.606z"/>
				</g>
			</g>
			<g id="XMLID_2531_">
				<path id="XMLID_2532_" style="fill:#FFFFFF;" d="M69.972,326.392c0.013-0.002,0.026-0.006,0.038-0.009
					c0.255-0.068,0.408-0.331,0.339-0.587c-7.771-29.156-38.49-33.37-45.677-32.85c-0.26,0.021-0.462,0.249-0.444,0.513
					c0.019,0.264,0.249,0.463,0.513,0.444c7.031-0.507,37.078,3.615,44.682,32.141C69.488,326.287,69.729,326.436,69.972,326.392z"
					/>
			</g>
			<g id="XMLID_2529_">
				<path id="XMLID_2530_" style="fill:#FFFFFF;" d="M35.841,311.618c0.093-0.017,0.182-0.062,0.254-0.134
					c0.077-0.078,7.911-7.802,20.905-5.889c0.262,0.035,0.507-0.142,0.545-0.405c0.039-0.262-0.143-0.506-0.405-0.545
					c-13.496-1.984-21.647,6.082-21.728,6.164c-0.187,0.189-0.184,0.492,0.003,0.679C35.532,311.601,35.691,311.645,35.841,311.618z
					"/>
			</g>
		</g>
	</g>
</g>
<g id="Server_2_">
	<g id="Server">
		<g id="Server_1_">
			<g id="XMLID_2289_">
				<path id="XMLID_2649_" style="fill:#37474F;" d="M315.596,52.445l55.273,31.912c1.021,0.59,1.849,2.023,1.849,3.202v151.943
					c0,1.179-0.828,2.613-1.849,3.202l-55.273,31.912c-1.021,0.59-2.677,0.59-3.698,0l-55.271-31.911
					c-1.021-0.59-1.849-2.023-1.849-3.202V87.559c0-1.179,0.828-2.613,1.849-3.202l55.272-31.912
					C312.92,51.855,314.575,51.855,315.596,52.445z"/>
				<path id="XMLID_2648_" style="fill:#263238;" d="M254.78,87.556v151.946c0,1.178,0.829,2.613,1.845,3.202l55.277,31.913
					c0.504,0.299,1.178,0.444,1.844,0.444V118.845c-0.666,0-1.332-0.154-1.844-0.444l-55.277-31.913l-0.504-0.418l-0.658-0.547
					C255.045,86.155,254.78,86.89,254.78,87.556z"/>
				<g id="XMLID_2639_">
					<path id="XMLID_2647_" style="fill:#455A64;" d="M363.932,102.513l-41.398,23.901c-1.021,0.59-1.849,2.023-1.849,3.202
						l0.001,15.758c0,1.179,0.828,1.657,1.849,1.068l41.397-23.901c1.021-0.59,1.849-2.023,1.849-3.202l0.001-15.758
						C365.781,102.401,364.953,101.924,363.932,102.513z"/>
					<path id="XMLID_2646_" style="fill:#27DEBF;" d="M362.311,109.457c0,1.106-0.828,2.481-1.849,3.07l-34.46,19.895
						c-1.021,0.59-1.849,0.171-1.849-0.935c0-1.106,0.828-2.481,1.849-3.07l34.46-19.895
						C361.484,107.932,362.311,108.351,362.311,109.457z"/>
					<path id="XMLID_2645_" style="fill:#263238;" d="M362.311,117.468c0,1.106-0.828,2.481-1.849,3.07l-34.46,19.895
						c-1.021,0.59-1.849,0.171-1.849-0.935c0-1.106,0.828-2.481,1.849-3.07l34.46-19.895
						C361.484,115.943,362.311,116.362,362.311,117.468z"/>
					<path id="XMLID_2644_" style="fill:#27DEBF;" d="M360.463,116.533l-18.964,10.949l0,4.005l18.965-10.949
						c1.021-0.59,1.849-1.964,1.849-3.07C362.311,116.362,361.484,115.943,360.463,116.533z"/>
				</g>
				<g id="XMLID_2498_">
					<path id="XMLID_2552_" style="fill:#455A64;" d="M363.932,130.551l-41.398,23.901c-1.021,0.59-1.849,2.023-1.849,3.202
						l0.001,15.758c0,1.179,0.828,1.657,1.849,1.067l41.397-23.901c1.021-0.59,1.849-2.023,1.849-3.202l0.001-15.758
						C365.781,130.44,364.953,129.962,363.932,130.551z"/>
					<path id="XMLID_2549_" style="fill:#27DEBF;" d="M362.311,137.495c0,1.106-0.828,2.481-1.849,3.07l-34.46,19.895
						c-1.021,0.59-1.849,0.171-1.849-0.935c0-1.106,0.828-2.481,1.849-3.07l34.46-19.895
						C361.484,135.97,362.311,136.389,362.311,137.495z"/>
					<path id="XMLID_2548_" style="fill:#263238;" d="M362.311,145.506c0,1.106-0.828,2.481-1.849,3.07l-34.46,19.895
						c-1.021,0.59-1.849,0.171-1.849-0.935c0-1.106,0.828-2.481,1.849-3.07l34.46-19.895
						C361.484,143.981,362.311,144.4,362.311,145.506z"/>
					<path id="XMLID_2499_" style="fill:#27DEBF;" d="M360.463,144.571l-29.371,16.957l0,4.005l29.371-16.957
						c1.021-0.59,1.849-1.964,1.849-3.07C362.311,144.4,361.484,143.981,360.463,144.571z"/>
				</g>
				<g id="XMLID_2483_">
					<path id="XMLID_2497_" style="fill:#455A64;" d="M363.932,158.59l-41.398,23.901c-1.021,0.59-1.849,2.023-1.849,3.202
						l0.001,15.758c0,1.179,0.828,1.657,1.849,1.067l41.397-23.901c1.021-0.59,1.849-2.023,1.849-3.202l0.001-15.758
						C365.781,158.478,364.953,158,363.932,158.59z"/>
					<path id="XMLID_2486_" style="fill:#27DEBF;" d="M362.311,165.533c0,1.106-0.828,2.481-1.849,3.07l-34.46,19.895
						c-1.021,0.59-1.849,0.171-1.849-0.935c0-1.106,0.828-2.481,1.849-3.07l34.46-19.895
						C361.484,164.008,362.311,164.427,362.311,165.533z"/>
					<path id="XMLID_2485_" style="fill:#263238;" d="M362.311,173.544c0,1.106-0.828,2.481-1.849,3.07l-34.46,19.895
						c-1.021,0.59-1.849,0.171-1.849-0.935c0-1.106,0.828-2.481,1.849-3.07l34.46-19.895
						C361.484,172.02,362.311,172.438,362.311,173.544z"/>
					<path id="XMLID_2484_" style="fill:#27DEBF;" d="M360.463,172.609l-12.027,6.943l0,4.005l12.027-6.943
						c1.021-0.59,1.849-1.964,1.849-3.07C362.311,172.438,361.484,172.02,360.463,172.609z"/>
				</g>
				<g id="XMLID_2477_">
					<path id="XMLID_2482_" style="fill:#455A64;" d="M363.932,186.628l-41.398,23.901c-1.021,0.59-1.849,2.023-1.849,3.202
						l0.001,15.758c0,1.179,0.828,1.657,1.849,1.067l41.397-23.901c1.021-0.59,1.849-2.023,1.849-3.202l0.001-15.758
						C365.781,186.516,364.953,186.038,363.932,186.628z"/>
					<path id="XMLID_2481_" style="fill:#27DEBF;" d="M362.311,193.572c0,1.106-0.828,2.481-1.849,3.07l-34.46,19.895
						c-1.021,0.59-1.849,0.171-1.849-0.935c0-1.106,0.828-2.481,1.849-3.07l34.46-19.895
						C361.484,192.047,362.311,192.465,362.311,193.572z"/>
					<path id="XMLID_2480_" style="fill:#263238;" d="M362.311,201.583c0,1.106-0.828,2.481-1.849,3.07l-34.46,19.895
						c-1.021,0.59-1.849,0.171-1.849-0.935c0-1.106,0.828-2.48,1.849-3.07l34.46-19.895
						C361.484,200.058,362.311,200.477,362.311,201.583z"/>
					<path id="XMLID_2478_" style="fill:#27DEBF;" d="M360.463,200.647l-18.964,10.949l0,4.005l18.965-10.949
						c1.021-0.59,1.849-1.964,1.849-3.07C362.311,200.477,361.484,200.058,360.463,200.647z"/>
				</g>
				<g id="XMLID_2469_">
					<path id="XMLID_2476_" style="fill:#455A64;" d="M363.932,214.666l-41.398,23.901c-1.021,0.59-1.849,2.023-1.849,3.202
						l0.001,15.758c0,1.179,0.828,1.657,1.849,1.068l41.397-23.901c1.021-0.59,1.849-2.023,1.849-3.202l0.001-15.758
						C365.781,214.555,364.953,214.077,363.932,214.666z"/>
					<path id="XMLID_2475_" style="fill:#27DEBF;" d="M362.311,221.61c0,1.106-0.828,2.481-1.849,3.07l-34.46,19.895
						c-1.021,0.59-1.849,0.171-1.849-0.935c0-1.106,0.828-2.481,1.849-3.07l34.46-19.895
						C361.484,220.085,362.311,220.504,362.311,221.61z"/>
					<path id="XMLID_2471_" style="fill:#263238;" d="M362.311,229.621c0,1.106-0.828,2.481-1.849,3.07l-34.46,19.895
						c-1.021,0.589-1.849,0.171-1.849-0.935c0-1.106,0.828-2.481,1.849-3.07l34.46-19.895
						C361.484,228.096,362.311,228.515,362.311,229.621z"/>
					<path id="XMLID_2470_" style="fill:#27DEBF;" d="M360.463,228.686L334.56,243.64l0,4.005l25.902-14.954
						c1.021-0.589,1.849-1.964,1.849-3.07C362.311,228.515,361.484,228.096,360.463,228.686z"/>
				</g>
				<g id="XMLID_2438_">
					<path id="XMLID_2467_" style="fill:#37474F;" d="M305.076,128.491c-1.916-1.111-3.469-0.099-3.469,2.259l0,91.605
						c0,2.358,1.553,5.17,3.469,6.281c1.916,1.111,3.469,0.099,3.469-2.259l0.001-91.606
						C308.545,132.413,306.992,129.602,305.076,128.491z"/>
					<path id="XMLID_2465_" style="fill:#263238;" d="M305.075,226.609c-0.958-0.553-1.734-1.957-1.734-3.136l0.001-91.862
						c0-1.179,0.776-1.687,1.734-1.134c0.958,0.553,1.735,1.957,1.734,3.136l-0.001,91.862
						C306.81,226.654,306.033,227.162,305.075,226.609z"/>
					<path id="XMLID_2464_" style="fill:#27DEBF;" d="M305.075,226.609c-0.958-0.553-1.734-1.957-1.734-3.136l0.001-43.92
						l3.469,2.003l-0.001,43.92C306.81,226.654,306.033,227.162,305.075,226.609z"/>
					<path id="XMLID_2463_" style="fill:#37474F;" d="M294.669,122.483c-1.916-1.111-3.469-0.099-3.469,2.259l0,91.605
						c0,2.358,1.553,5.17,3.469,6.281s3.469,0.099,3.469-2.259l0.001-91.606C298.138,126.406,296.585,123.594,294.669,122.483z"/>
					<path id="XMLID_2462_" style="fill:#27DEBF;" d="M294.669,220.601c-0.958-0.553-1.734-1.957-1.734-3.136l0-91.862
						c0-1.179,0.777-1.687,1.735-1.134c0.958,0.553,1.734,1.957,1.734,3.136l-0.001,91.862
						C296.403,220.646,295.626,221.154,294.669,220.601z"/>
					<path id="XMLID_2461_" style="fill:#37474F;" d="M284.263,116.475c-1.916-1.111-3.469-0.099-3.469,2.259l0,91.605
						c0,2.358,1.553,5.17,3.469,6.281c1.916,1.111,3.469,0.099,3.469-2.259l0.001-91.606
						C287.732,120.398,286.178,117.586,284.263,116.475z"/>
					<path id="XMLID_2460_" style="fill:#263238;" d="M284.262,214.593c-0.958-0.553-1.734-1.957-1.734-3.136l0.001-91.862
						c0-1.179,0.776-1.687,1.734-1.134c0.958,0.553,1.735,1.957,1.734,3.136l-0.001,91.862
						C285.996,214.638,285.22,215.146,284.262,214.593z"/>
					<path id="XMLID_2459_" style="fill:#27DEBF;" d="M284.262,214.593c-0.958-0.553-1.734-1.957-1.734-3.136l0.001-70.957
						l3.469,2.003l-0.001,70.958C285.996,214.638,285.22,215.146,284.262,214.593z"/>
					<path id="XMLID_2457_" style="fill:#37474F;" d="M273.856,110.467c-1.916-1.111-3.469-0.099-3.469,2.259l0,91.605
						c0,2.358,1.553,5.17,3.469,6.281c1.916,1.111,3.469,0.099,3.469-2.259l0.001-91.606
						C277.325,114.39,275.772,111.578,273.856,110.467z"/>
					<path id="XMLID_2448_" style="fill:#263238;" d="M273.855,208.585c-0.958-0.553-1.734-1.957-1.734-3.136l0-91.862
						c0-1.179,0.777-1.687,1.735-1.134c0.958,0.553,1.735,1.957,1.735,3.136l-0.001,91.862
						C275.59,208.63,274.813,209.138,273.855,208.585z"/>
					<path id="XMLID_2446_" style="fill:#27DEBF;" d="M273.855,208.585c-0.958-0.553-1.734-1.957-1.734-3.136l0-15.504l3.469,2.003
						l-0.001,15.504C275.59,208.63,274.813,209.138,273.855,208.585z"/>
					<path id="XMLID_2442_" style="fill:#37474F;" d="M263.449,104.459c-1.916-1.111-3.469-0.099-3.469,2.259l0,91.605
						c0,2.358,1.553,5.17,3.469,6.281c1.916,1.111,3.469,0.099,3.469-2.259l0.001-91.606
						C266.918,108.382,265.365,105.57,263.449,104.459z"/>
					<path id="XMLID_2441_" style="fill:#263238;" d="M263.449,202.577c-0.958-0.553-1.734-1.957-1.734-3.136l0.001-91.862
						c0-1.179,0.776-1.687,1.734-1.134c0.958,0.553,1.735,1.957,1.734,3.136l-0.001,91.862
						C265.183,202.622,264.406,203.13,263.449,202.577z"/>
					<path id="XMLID_2439_" style="fill:#27DEBF;" d="M263.449,202.577c-0.958-0.553-1.734-1.957-1.734-3.136l0.001-47.926
						l3.469,2.003l-0.001,47.926C265.183,202.622,264.406,203.13,263.449,202.577z"/>
				</g>
				<g id="XMLID_2291_">
					<path id="XMLID_2437_" style="fill:#37474F;" d="M307.065,239.782l-45.606-26.331c-0.817-0.472-1.479-0.089-1.479,0.854v16.611
						c0,0.943,0.662,2.09,1.479,2.562l45.606,26.33c0.817,0.472,1.479,0.089,1.479-0.854v-16.612
						C308.544,241.401,307.882,240.254,307.065,239.782z"/>
					<g id="XMLID_2431_">
						<path id="XMLID_2436_" style="fill:#263238;" d="M305.19,244.708c0,1.106-0.828,1.525-1.849,0.935l-38.157-22.037
							c-1.021-0.59-1.849-1.964-1.849-3.07c0-1.106,0.827-1.525,1.849-0.935l38.159,22.037
							C304.363,242.227,305.19,243.602,305.19,244.708z"/>
						<path id="XMLID_2434_" style="fill:#27DEBF;" d="M305.19,244.708c0,1.106-0.828,1.524-1.849,0.935l-27.75-16.03l-0.001-4.005
							l27.752,16.03C304.363,242.227,305.19,243.602,305.19,244.708z"/>
					</g>
					<g id="XMLID_2412_">
						<path id="XMLID_2429_" style="fill:#263238;" d="M305.19,252.719c0,1.106-0.828,1.525-1.849,0.935l-38.157-22.037
							c-1.021-0.59-1.849-1.964-1.849-3.07c0-1.106,0.827-1.525,1.849-0.935l38.159,22.037
							C304.363,250.238,305.19,251.613,305.19,252.719z"/>
						<path id="XMLID_2428_" style="fill:#27DEBF;" d="M305.19,252.719c0,1.106-0.828,1.525-1.849,0.935l-10.406-6.009l-0.001-4.005
							l10.408,6.008C304.363,250.238,305.19,251.613,305.19,252.719z"/>
					</g>
				</g>
				<path id="XMLID_2290_" style="fill:#455A64;" d="M256.627,84.357l55.273-31.912c1.021-0.59,2.677-0.59,3.698,0l55.272,31.911
					c1.021,0.59,1.021,1.545,0,2.135l-55.273,31.912c-1.021,0.59-2.677,0.59-3.698,0l-55.271-31.911
					C255.606,85.902,255.606,84.946,256.627,84.357z"/>
			</g>
			<g id="XMLID_1964_">
				<path id="XMLID_2288_" style="fill:#263238;" d="M314.857,110.819l42.876-24.755c0.613-0.354,1.109-1.214,1.109-1.921v-1.444
					c0-0.708-0.497-1.568-1.109-1.922l-42.876-24.755c-0.613-0.354-1.606-0.354-2.219,0l-42.876,24.755
					c-0.613,0.354-1.109,1.214-1.109,1.921v1.444c0,0.707,0.497,1.568,1.109,1.921l42.876,24.755
					C313.251,111.173,314.245,111.173,314.857,110.819z"/>
				<path id="XMLID_1968_" style="fill:#455A64;" d="M357.734,82.059l-42.876,24.755c-0.613,0.354-1.606,0.354-2.219,0
					l-42.876-24.755c-0.613-0.354-0.613-0.927,0-1.281l42.876-23.9c0.613-0.354,1.606-0.354,2.219,0l42.876,23.9
					C358.346,81.132,358.346,81.705,357.734,82.059z"/>
				<path id="XMLID_1965_" style="fill:#37474F;" d="M313.746,107.077v4.005c0.401,0,0.803-0.085,1.11-0.265l42.878-24.756
					c0.615-0.35,1.11-1.213,1.11-1.921v-1.443c0-0.623-0.384-1.366-0.905-1.776c0.401,0.35,0.333,0.828-0.205,1.136l-42.878,24.756
					C314.549,106.992,314.147,107.077,313.746,107.077z"/>
			</g>
			<g id="XMLID_432_">
				<path id="XMLID_1963_" style="fill:#263238;" d="M314.857,98.803l29.001-16.744c0.613-0.354,1.109-1.214,1.109-1.921v-1.444
					c0-0.707-0.497-1.568-1.109-1.921l-18.594-10.735c-0.613-0.354-1.451-1.101-1.873-1.669l-8.88-11.963
					c-0.422-0.568-1.26-0.742-1.873-0.388l-29.001,16.743c-0.613,0.354-1.109,1.214-1.109,1.922l0.001,9.455
					c0,0.708,0.497,1.568,1.109,1.921l29.001,16.744C313.251,99.156,314.245,99.156,314.857,98.803z"/>
				<path id="XMLID_1962_" style="fill:#455A64;" d="M312.639,94.797l-18.594-10.735c-0.295-0.17-0.642-0.432-0.97-0.721
					c-0.353-0.311-0.684-0.654-0.903-0.948l-8.88-11.963c-0.422-0.568-0.267-1.315,0.346-1.669l29.001-16.743
					c0.613-0.354,1.451-0.18,1.873,0.388l8.88,11.963c0.422,0.568,1.106,1.382,1.719,1.736l18.748,10.668
					c0.613,0.354,0.613,0.927,0,1.281l-29.001,16.744C314.245,95.151,313.251,95.151,312.639,94.797z"/>
				<path id="XMLID_1961_" style="fill:#37474F;" d="M283.637,68.761l29.001-16.743c0.613-0.354,1.451-0.18,1.873,0.388l8.88,11.963
					c0.22,0.296,0.553,0.634,0.908,0.945c0,0-31.214,18.033-31.223,18.025c-0.354-0.311-0.686-0.651-0.904-0.946l-8.88-11.963
					C282.869,69.862,283.024,69.115,283.637,68.761z"/>
				<g id="XMLID_1056_">
					<path id="XMLID_1960_" style="fill:#27DEBF;" d="M336.822,77.066c-0.718-0.415-1.883-0.415-2.602,0
						c-0.719,0.415-0.719,1.087,0,1.502c0.718,0.415,1.883,0.415,2.602,0C337.54,78.154,337.54,77.481,336.822,77.066z"/>
					<path id="XMLID_1923_" style="fill:#27DEBF;" d="M331.619,80.07c-0.718-0.415-1.883-0.415-2.602,0
						c-0.718,0.415-0.718,1.087,0,1.502c0.718,0.415,1.883,0.415,2.602,0C332.337,81.158,332.337,80.485,331.619,80.07z"/>
					<path id="XMLID_1921_" style="fill:#263238;" d="M326.415,83.074c-0.718-0.415-1.883-0.415-2.602,0
						c-0.718,0.415-0.718,1.087,0,1.502c0.719,0.415,1.883,0.415,2.602,0C327.134,84.162,327.134,83.489,326.415,83.074z"/>
					<path id="XMLID_1920_" style="fill:#263238;" d="M321.212,86.078c-0.718-0.415-1.883-0.415-2.602,0
						c-0.718,0.415-0.718,1.087,0,1.502c0.719,0.415,1.883,0.415,2.602,0C321.931,87.166,321.931,86.493,321.212,86.078z"/>
					<path id="XMLID_1919_" style="fill:#27DEBF;" d="M332.919,74.813c-0.719-0.415-1.883-0.415-2.602,0
						c-0.719,0.415-0.719,1.087,0,1.502c0.718,0.415,1.883,0.415,2.602,0C333.638,75.901,333.638,75.228,332.919,74.813z"/>
					<path id="XMLID_1918_" style="fill:#263238;" d="M327.716,77.817c-0.718-0.415-1.883-0.415-2.602,0
						c-0.719,0.415-0.719,1.087,0,1.502c0.718,0.415,1.883,0.415,2.602,0C328.435,78.905,328.435,78.232,327.716,77.817z"/>
					<path id="XMLID_1916_" style="fill:#27DEBF;" d="M322.513,80.821c-0.718-0.415-1.883-0.415-2.602,0
						c-0.718,0.415-0.718,1.087,0,1.502c0.718,0.415,1.883,0.415,2.602,0C323.232,81.909,323.232,81.236,322.513,80.821z"/>
					<path id="XMLID_1915_" style="fill:#263238;" d="M317.31,83.825c-0.718-0.415-1.883-0.415-2.602,0
						c-0.718,0.415-0.718,1.087,0,1.502c0.719,0.415,1.883,0.415,2.602,0C318.029,84.913,318.029,84.24,317.31,83.825z"/>
					<path id="XMLID_1914_" style="fill:#263238;" d="M329.017,72.56c-0.718-0.415-1.883-0.415-2.602,0
						c-0.718,0.415-0.718,1.087,0,1.502c0.718,0.415,1.883,0.415,2.602,0C329.736,73.647,329.736,72.975,329.017,72.56z"/>
					<path id="XMLID_1913_" style="fill:#27DEBF;" d="M323.814,75.564c-0.718-0.415-1.883-0.415-2.602,0
						c-0.718,0.415-0.718,1.087,0,1.502c0.718,0.415,1.883,0.415,2.602,0C324.533,76.651,324.533,75.979,323.814,75.564z"/>
					<path id="XMLID_1864_" style="fill:#263238;" d="M318.611,78.568c-0.719-0.415-1.883-0.415-2.602,0
						c-0.718,0.415-0.718,1.087,0,1.502c0.718,0.415,1.883,0.415,2.602,0C319.33,79.656,319.33,78.983,318.611,78.568z"/>
					<path id="XMLID_1863_" style="fill:#27DEBF;" d="M315.98,89.022c-0.718-0.415-1.883-0.415-2.602,0
						c-0.718,0.415-0.718,1.087,0,1.502c0.718,0.415,1.883,0.415,2.602,0C316.698,90.11,316.698,89.437,315.98,89.022z"/>
					<path id="XMLID_1862_" style="fill:#263238;" d="M312.078,86.769c-0.718-0.415-1.883-0.415-2.602,0
						c-0.718,0.415-0.718,1.087,0,1.502c0.719,0.415,1.883,0.415,2.602,0C312.796,87.856,312.796,87.184,312.078,86.769z"/>
					<path id="XMLID_1850_" style="fill:#263238;" d="M313.408,81.575c-0.718-0.415-1.883-0.415-2.602,0
						c-0.718,0.415-0.718,1.087,0,1.502c0.719,0.415,1.883,0.415,2.602,0C314.126,82.662,314.126,81.989,313.408,81.575z"/>
					<path id="XMLID_1600_" style="fill:#27DEBF;" d="M325.115,70.31c-0.718-0.415-1.883-0.415-2.602,0
						c-0.718,0.415-0.718,1.087,0,1.502c0.719,0.415,1.883,0.415,2.602,0C325.833,71.397,325.833,70.724,325.115,70.31z"/>
					<path id="XMLID_1598_" style="fill:#263238;" d="M319.912,73.313c-0.718-0.415-1.883-0.415-2.602,0
						c-0.718,0.415-0.718,1.087,0,1.502c0.718,0.415,1.883,0.415,2.602,0C320.63,74.401,320.63,73.728,319.912,73.313z"/>
					<path id="XMLID_1596_" style="fill:#27DEBF;" d="M314.709,76.317c-0.719-0.415-1.883-0.415-2.602,0
						c-0.719,0.415-0.719,1.087,0,1.502c0.718,0.415,1.883,0.415,2.602,0C315.427,77.405,315.427,76.732,314.709,76.317z"/>
					<path id="XMLID_1061_" style="fill:#263238;" d="M309.506,79.322c-0.718-0.415-1.883-0.415-2.602,0
						c-0.719,0.415-0.719,1.087,0,1.502c0.718,0.415,1.883,0.415,2.602,0C310.224,80.409,310.224,79.736,309.506,79.322z"/>
					<path id="XMLID_1060_" style="fill:#27DEBF;" d="M308.176,84.519c-0.718-0.415-1.883-0.415-2.602,0
						c-0.718,0.415-0.718,1.087,0,1.502c0.718,0.415,1.883,0.415,2.602,0C308.894,85.606,308.894,84.933,308.176,84.519z"/>
					<path id="XMLID_1057_" style="fill:#263238;" d="M304.273,82.266c-0.719-0.415-1.883-0.415-2.602,0
						c-0.719,0.415-0.719,1.087,0,1.502c0.718,0.415,1.883,0.415,2.602,0C304.992,83.353,304.992,82.68,304.273,82.266z"/>
				</g>
				<path id="XMLID_1055_" style="fill:#37474F;" d="M313.686,95.062v3.997c0.419,0.008,0.846-0.068,1.17-0.256l29.001-16.746
					c0.615-0.35,1.11-1.213,1.11-1.922v-1.443c0-0.623-0.384-1.366-0.905-1.776c0.401,0.35,0.333,0.828-0.205,1.136l-29.001,16.746
					C314.532,94.985,314.105,95.071,313.686,95.062z"/>
				<g id="XMLID_433_">
					<path id="XMLID_1027_" style="fill:#263238;" d="M319.556,63.868l-0.026-0.035c-0.28-0.379-0.839-0.495-1.247-0.26
						l-25.238,14.571c-0.408,0.236-0.511,0.733-0.229,1.112l0.026,0.035c0.282,0.378,0.841,0.493,1.25,0.258l25.231-14.568
						C319.732,64.746,319.836,64.248,319.556,63.868z"/>
					<path id="XMLID_1024_" style="fill:#27DEBF;" d="M319.556,63.868l-0.026-0.035c-0.28-0.379-0.839-0.495-1.247-0.26
						L299.52,74.407l1.047,1.404l18.757-10.829C319.732,64.746,319.836,64.248,319.556,63.868z"/>
					<path id="XMLID_439_" style="fill:#263238;" d="M317.47,61.068l-0.026-0.035c-0.28-0.379-0.839-0.496-1.247-0.26
						l-25.237,14.571c-0.408,0.236-0.511,0.734-0.229,1.112l0.026,0.035c0.282,0.378,0.842,0.493,1.25,0.258l25.231-14.568
						C317.646,61.946,317.75,61.447,317.47,61.068z"/>
					<path id="XMLID_438_" style="fill:#27DEBF;" d="M317.47,61.068l-0.026-0.035c-0.28-0.379-0.839-0.496-1.247-0.26l-6.273,3.62
						l1.047,1.405l6.267-3.617C317.646,61.946,317.75,61.447,317.47,61.068z"/>
					<path id="XMLID_437_" style="fill:#263238;" d="M315.383,58.268l-0.026-0.035c-0.28-0.379-0.839-0.495-1.247-0.26
						l-25.237,14.571c-0.408,0.236-0.511,0.734-0.229,1.112l0.026,0.035c0.282,0.378,0.841,0.493,1.25,0.258l25.231-14.568
						C315.56,59.146,315.663,58.647,315.383,58.268z"/>
					<path id="XMLID_436_" style="fill:#27DEBF;" d="M315.383,58.268l-0.026-0.035c-0.28-0.379-0.839-0.496-1.248-0.261
						l-13.145,7.566l1.047,1.404l13.139-7.562C315.559,59.145,315.663,58.647,315.383,58.268z"/>
					<path id="XMLID_435_" style="fill:#263238;" d="M313.297,55.468l-0.026-0.035c-0.28-0.379-0.839-0.496-1.247-0.26
						l-25.237,14.571c-0.408,0.236-0.511,0.733-0.229,1.112l0.026,0.035c0.282,0.378,0.841,0.493,1.25,0.258l25.231-14.568
						C313.473,56.346,313.577,55.847,313.297,55.468z"/>
					<path id="XMLID_434_" style="fill:#27DEBF;" d="M313.297,55.468l-0.026-0.035c-0.28-0.379-0.839-0.496-1.247-0.26
						l-22.909,13.226l1.047,1.405l22.903-13.222C313.473,56.346,313.577,55.847,313.297,55.468z"/>
				</g>
			</g>
		</g>
		<g id="XMLID_2718_">
			<path id="XMLID_3734_" style="fill:#455A64;" d="M264.336,242.141c0.122-0.054,0.282-0.037,0.46,0.066
				c0.387,0.224,0.703,0.772,0.703,1.219c0,0.197-0.061,0.343-0.163,0.424c0,0.002-0.002,0.002-0.002,0.002l-0.085,0.049
				l-30.055,17.351l-1.977-1.142L264.336,242.141z"/>
			<path id="XMLID_3751_" style="fill:#455A64;" d="M268.403,244.486c0.122-0.054,0.282-0.036,0.46,0.066
				c0.387,0.224,0.703,0.772,0.703,1.22c0,0.197-0.061,0.343-0.163,0.424c0,0.002-0.003,0.002-0.003,0.002l-0.085,0.049
				l-30.055,17.351l-1.977-1.142L268.403,244.486z"/>
			<path id="XMLID_3752_" style="fill:#455A64;" d="M272.46,246.829c0.122-0.054,0.282-0.037,0.46,0.066
				c0.387,0.224,0.703,0.772,0.703,1.219c0,0.197-0.061,0.343-0.163,0.424c0,0.002-0.003,0.002-0.003,0.002l-0.085,0.049
				l-30.055,17.351l-1.977-1.142L272.46,246.829z"/>
			<path id="XMLID_3753_" style="fill:#455A64;" d="M276.525,249.174c0.122-0.054,0.282-0.036,0.46,0.066
				c0.387,0.224,0.704,0.772,0.704,1.219c0,0.197-0.061,0.343-0.163,0.424c0,0.002-0.003,0.002-0.003,0.002l-0.085,0.049
				l-30.056,17.351l-1.976-1.142L276.525,249.174z"/>
		</g>
	</g>
</g>
<g id="Device">
	<g id="Laptop_2_">
		<path id="XMLID_2269_" style="fill:#27DEBF;" d="M71.036,347.557c0,2.454,1.837,5.504,4.103,6.813l114.952,66.368
			c2.266,1.308,5.939,1.308,8.205,0l157.286-90.809c2.266-1.308,4.103-4.358,4.103-6.813c0-2.454-1.837-5.505-4.103-6.813
			l-114.953-66.367c-2.266-1.308-5.939-1.308-8.205,0L75.139,340.744C72.873,342.052,71.036,345.103,71.036,347.557z"/>
		<path id="XMLID_2268_" style="opacity:0.7;" d="M194.196,412.838v8.878c-1.488,0-2.975-0.322-4.102-0.976L75.137,354.37
			c-2.264-1.308-4.102-4.358-4.102-6.812c0-2.302,1.62-5.126,3.686-6.547c-1.838,1.317-1.696,3.25,0.417,4.472l114.956,66.37
			C191.221,412.507,192.709,412.838,194.196,412.838z"/>
		<path id="XMLID_2267_" style="fill:#27DEBF;" d="M67.188,340.891c-2.125-1.227-3.848-4.343-3.848-6.959l-0.001-137.179
			c0-2.616,1.837-5.798,4.103-7.106l157.287-90.809c2.266-1.308,5.826-1.374,7.952-0.147c2.126,1.227,3.849,4.343,3.849,6.959
			v137.179c0,2.616-1.837,5.798-4.103,7.106L75.139,340.744C72.873,342.052,69.313,342.118,67.188,340.891z"/>
		<path id="XMLID_2266_" style="opacity:0.7;" d="M74.654,340.992c-2.264,1.061-5.486,1.042-7.466-0.104
			c-2.122-1.222-3.847-4.339-3.847-6.954V196.749c0-1.307,0.455-2.757,1.203-4.036l7.693,4.434v0.009
			c-0.739,1.289-1.203,2.729-1.203,4.036v137.184C71.035,340.802,72.617,341.892,74.654,340.992z"/>
		<path id="XMLID_2265_" style="opacity:0.5;" d="M71.036,201.197v137.179c0,2.616,1.837,3.677,4.103,2.369l157.287-90.809
			c2.266-1.308,4.103-4.49,4.103-7.106V105.65c0-2.616-1.837-3.677-4.103-2.369L75.139,194.091
			C72.873,195.399,71.036,198.58,71.036,201.197z"/>
		<path id="XMLID_2264_" style="fill:#27DEBF;" d="M75.139,345.482l114.953,66.368c2.266,1.308,5.939,1.308,8.205,0l157.287-90.81
			c2.266-1.308,2.266-3.429,0-4.737l-114.953-66.367c-2.266-1.308-5.939-1.308-8.205,0L75.139,340.744
			C72.873,342.052,72.873,344.173,75.139,345.482z"/>
		<path id="XMLID_2263_" style="opacity:0.3;" d="M75.139,345.482l114.953,66.368c2.266,1.308,5.939,1.308,8.205,0l157.287-90.81
			c2.266-1.308,2.266-3.429,0-4.737l-114.953-66.367c-2.266-1.308-5.939-1.308-8.205,0L75.139,340.744
			C72.873,342.052,72.873,344.173,75.139,345.482z"/>
		<path id="XMLID_2262_" style="fill:#FAFAFA;" d="M77.345,201.704l151.645-87.529c1.36-0.785,2.462-0.149,2.462,1.421v118.75
			c0,1.57-1.102,3.479-2.462,4.264L77.345,326.137c-1.359,0.785-2.462,0.149-2.462-1.421V205.967
			C74.884,204.398,75.986,202.489,77.345,201.704z"/>
		<g id="XMLID_2651_">
			<path id="XMLID_2650_" style="fill:#27DEBF;" d="M177.396,183.175l-0.962,27.418c0,11.285-7.095,31.68-21.686,46.749
				c-0.861,0.891-2.57,1.781-3.802,1.901c-0.735,0.072-1.447,0.102-2.146,0.102c-3.449,0-6.42-0.837-8.918-2.265l-0.09-0.048
				l-0.173-0.108c-6.521-3.891-9.719-11.889-9.719-19.462l-0.962-26.211c-0.024-0.699,0.269-1.369,0.741-1.913
				c0.359-0.418,0.819-0.759,1.315-0.98c6.677-2.959,16.689-14.788,21.387-26.462c0.335-0.825,0.843-1.094,1.399-0.831l0,0
				l0.084,0.048c0.167,0.09,0.335,0.227,0.502,0.412h0.006c0.03,0.03,0.06,0.066,0.09,0.102c4.985,5.804,14.788,5.798,21.333,0.789
				c0.496-0.377,0.909-0.496,1.189-0.371l0.036,0.024c0,0-0.006,0-0.006,0.006C177.277,182.218,177.42,182.583,177.396,183.175z"/>
			<path id="XMLID_2656_" style="opacity:0.2;" d="M153.168,181.025c-0.307,0.093-0.581,0.365-0.787,0.871
				c-4.698,11.674-14.71,23.503-21.387,26.462c-0.496,0.221-0.956,0.562-1.315,0.98c-0.472,0.544-0.765,1.213-0.741,1.913
				l0.962,26.21c0,7.573,3.198,15.571,9.719,19.462l0.173,0.108l0.09,0.048c2.498,1.429,5.469,2.266,8.918,2.266
				c0.699,0,1.411-0.03,2.146-0.102c0.671-0.065,1.481-0.363,2.221-0.761V181.025z"/>
		</g>
		<path id="XMLID_2261_" style="opacity:0.3;" d="M88.482,341.929l145.997-84.29c1.133-0.654,2.97-0.654,4.103,0l7.467,4.311
			c1.133,0.654,1.133,1.714,0,2.368L100.03,348.596c-1.133,0.654-2.97,0.654-4.103,0l-7.445-4.298
			C87.349,343.644,87.349,342.583,88.482,341.929z"/>
		<path id="XMLID_2260_" style="opacity:0.3;" d="M107.727,353.039l145.995-84.291c1.133-0.654,2.97-0.654,4.103,0l45.93,26.519
			c1.133,0.654,1.133,1.714,0,2.368L157.926,381.81c-1.133,0.654-2.971,0.657-4.106,0.006l-46.089-26.415
			C106.596,354.751,106.594,353.693,107.727,353.039z"/>
		<path id="XMLID_2048_" style="fill:#263238;" d="M238.598,306.672l4.571-2.639c0.194-0.112,0.183-0.301-0.026-0.421l-5.286-3.052
			c-0.209-0.12-0.535-0.127-0.729-0.015l-4.571,2.639c-0.194,0.112-0.182,0.3,0.026,0.421l5.286,3.052
			C238.077,306.777,238.403,306.783,238.598,306.672z M229.577,296.185l-4.571,2.639c-0.194,0.112-0.182,0.301,0.026,0.421
			l5.286,3.052c0.208,0.12,0.535,0.127,0.729,0.015l4.571-2.639c0.194-0.112,0.183-0.301-0.026-0.421l-5.286-3.052
			C230.098,296.08,229.771,296.073,229.577,296.185z M214.809,304.712l-7.736,4.466c-0.194,0.112-0.183,0.301,0.026,0.421
			l5.286,3.052c0.209,0.12,0.535,0.127,0.729,0.015l7.736-4.466c0.194-0.112,0.183-0.301-0.026-0.421l-5.285-3.052
			C215.33,304.606,215.003,304.599,214.809,304.712z M222.896,300.042l-4.571,2.64c-0.194,0.112-0.182,0.301,0.026,0.421
			l5.286,3.052c0.208,0.121,0.535,0.127,0.729,0.015l4.571-2.639c0.194-0.112,0.183-0.301-0.026-0.421l-5.286-3.051
			C223.417,299.937,223.09,299.93,222.896,300.042z M204.964,310.396l-4.571,2.639c-0.194,0.112-0.183,0.301,0.026,0.421
			l5.286,3.052c0.208,0.12,0.535,0.127,0.729,0.015l4.571-2.639c0.194-0.112,0.182-0.3-0.026-0.421l-5.285-3.052
			C205.484,310.29,205.158,310.284,204.964,310.396z M198.283,314.253l-4.571,2.639c-0.194,0.112-0.182,0.301,0.026,0.421
			l5.286,3.051c0.209,0.121,0.535,0.128,0.729,0.015l4.571-2.639c0.194-0.112,0.182-0.301-0.026-0.421l-5.285-3.051
			C198.803,314.148,198.477,314.141,198.283,314.253z M219.074,326.663l4.571-2.639c0.194-0.112,0.183-0.301-0.026-0.421
			l-5.285-3.052c-0.209-0.12-0.535-0.127-0.729-0.015l-4.571,2.639c-0.194,0.112-0.183,0.301,0.025,0.421l5.286,3.052
			C218.553,326.768,218.88,326.775,219.074,326.663z M212.393,330.52l4.571-2.639c0.194-0.112,0.182-0.301-0.026-0.421l-5.285-3.051
			c-0.209-0.12-0.535-0.127-0.729-0.015l-4.571,2.639c-0.194,0.112-0.183,0.301,0.026,0.421l5.286,3.052
			C211.872,330.625,212.199,330.632,212.393,330.52z M205.712,334.377l4.571-2.639c0.194-0.112,0.183-0.3-0.026-0.421l-5.285-3.052
			c-0.209-0.12-0.535-0.127-0.729-0.015l-4.571,2.639c-0.194,0.112-0.183,0.301,0.026,0.421l5.285,3.052
			C205.191,334.483,205.518,334.489,205.712,334.377z M199.031,338.234l4.571-2.639c0.194-0.112,0.182-0.301-0.026-0.421
			l-5.285-3.051c-0.209-0.12-0.535-0.127-0.729-0.015l-4.571,2.639c-0.194,0.112-0.183,0.301,0.026,0.421l5.285,3.051
			C198.51,338.34,198.837,338.347,199.031,338.234z M231.917,310.529l4.571-2.639c0.194-0.112,0.182-0.301-0.026-0.421l-5.286-3.052
			c-0.208-0.121-0.535-0.127-0.729-0.015l-4.571,2.639c-0.194,0.112-0.183,0.301,0.025,0.421l5.286,3.052
			C231.396,310.634,231.723,310.641,231.917,310.529z M225.755,322.806l10.197-5.887c0.194-0.112,0.182-0.301-0.026-0.421
			l-12.836-7.411c-0.209-0.12-0.535-0.127-0.729-0.015l-5.274,3.045c-0.194,0.112-0.183,0.301,0.025,0.421l6.796,3.924
			c0.209,0.12,0.22,0.309,0.026,0.421l-4.219,2.436c-0.194,0.112-0.183,0.301,0.026,0.421l5.286,3.052
			C225.234,322.911,225.561,322.918,225.755,322.806z M191.602,318.11l-4.571,2.64c-0.194,0.112-0.182,0.301,0.026,0.421
			l5.285,3.052c0.209,0.12,0.535,0.127,0.729,0.015l4.571-2.639c0.194-0.112,0.183-0.301-0.026-0.421l-5.285-3.052
			C192.122,318.005,191.796,317.998,191.602,318.11z M184.921,321.968l-4.571,2.639c-0.194,0.112-0.183,0.301,0.026,0.421
			l5.285,3.052c0.209,0.12,0.535,0.127,0.729,0.015l4.571-2.639c0.194-0.112,0.183-0.301-0.026-0.421l-5.286-3.052
			C185.442,321.862,185.115,321.856,184.921,321.968z M151.536,365.22c0.208,0.12,0.535,0.127,0.729,0.015l4.571-2.639
			c0.194-0.112,0.182-0.301-0.026-0.421l-5.286-3.051c-0.209-0.12-0.535-0.127-0.729-0.015l-4.571,2.639
			c-0.194,0.112-0.182,0.301,0.026,0.421L151.536,365.22z M131.474,352.825l-4.571,2.639c-0.194,0.112-0.183,0.301,0.026,0.421
			l5.285,3.051c0.209,0.121,0.535,0.128,0.729,0.015l4.571-2.639c0.194-0.112,0.182-0.301-0.026-0.421l-5.286-3.051
			C131.994,352.72,131.668,352.713,131.474,352.825z M142.227,361.875c0.209,0.12,0.535,0.127,0.729,0.015l4.571-2.639
			c0.194-0.112,0.182-0.301-0.026-0.421l-5.285-3.052c-0.209-0.121-0.535-0.127-0.729-0.015l-4.571,2.639
			c-0.194,0.112-0.183,0.301,0.026,0.421L142.227,361.875z M163.332,367.564l4.571-2.639c0.194-0.112,0.183-0.301-0.026-0.421
			l-5.286-3.052c-0.209-0.12-0.535-0.127-0.73-0.014l-4.571,2.639c-0.194,0.112-0.182,0.301,0.026,0.421l5.285,3.051
			C162.811,367.67,163.138,367.677,163.332,367.564z M155.922,371.407c0.208,0.12,0.535,0.127,0.729,0.015l4.571-2.639
			c0.194-0.112,0.182-0.3-0.026-0.421l-5.286-3.052c-0.209-0.12-0.535-0.127-0.729-0.015l-4.571,2.64
			c-0.194,0.112-0.183,0.3,0.026,0.421L155.922,371.407z M138.155,348.968l-4.571,2.639c-0.194,0.112-0.182,0.301,0.026,0.421
			l5.286,3.052c0.209,0.12,0.535,0.127,0.729,0.015l4.571-2.639c0.194-0.112,0.183-0.3-0.026-0.421l-5.285-3.052
			C138.675,348.862,138.349,348.856,138.155,348.968z M171.559,329.682l-4.571,2.639c-0.194,0.112-0.182,0.301,0.026,0.421
			l5.285,3.052c0.209,0.12,0.535,0.127,0.729,0.015l4.571-2.639c0.194-0.112,0.182-0.3-0.026-0.421l-5.286-3.052
			C172.079,329.576,171.753,329.57,171.559,329.682z M144.836,345.111l-4.571,2.639c-0.194,0.112-0.182,0.301,0.026,0.421
			l5.286,3.052c0.209,0.12,0.535,0.128,0.729,0.015l4.571-2.639c0.194-0.112,0.182-0.301-0.026-0.421l-5.285-3.052
			C145.356,345.005,145.03,344.999,144.836,345.111z M178.24,325.824l-4.571,2.639c-0.194,0.112-0.182,0.301,0.026,0.421
			l5.285,3.052c0.209,0.12,0.535,0.128,0.729,0.015l4.571-2.639c0.194-0.112,0.183-0.301-0.026-0.421l-5.286-3.052
			C178.76,325.719,178.434,325.712,178.24,325.824z M164.878,333.539l-4.571,2.639c-0.194,0.112-0.183,0.301,0.026,0.421
			l5.286,3.051c0.208,0.121,0.535,0.128,0.729,0.015l4.571-2.639c0.194-0.112,0.183-0.301-0.026-0.421l-5.286-3.051
			C165.399,333.434,165.072,333.427,164.878,333.539z M158.197,337.396l-4.571,2.639c-0.194,0.112-0.183,0.301,0.026,0.421
			l5.286,3.052c0.208,0.12,0.535,0.127,0.729,0.015l4.571-2.639c0.194-0.112,0.182-0.301-0.026-0.421l-5.285-3.052
			C158.718,337.291,158.391,337.284,158.197,337.396z M151.517,341.254l-4.571,2.639c-0.194,0.112-0.183,0.301,0.025,0.421
			l5.286,3.052c0.209,0.12,0.535,0.127,0.729,0.015l4.571-2.639c0.194-0.112,0.182-0.301-0.026-0.421l-5.285-3.051
			C152.037,341.148,151.711,341.142,151.517,341.254z M185.669,345.949l4.571-2.639c0.194-0.112,0.183-0.301-0.026-0.421
			l-5.286-3.052c-0.209-0.12-0.535-0.127-0.729-0.015l-4.571,2.639c-0.194,0.112-0.182,0.301,0.026,0.421l5.285,3.052
			C185.149,346.055,185.475,346.061,185.669,345.949z M244.346,287.659l-4.571,2.639c-0.194,0.112-0.182,0.3,0.026,0.421
			l5.286,3.052c0.209,0.121,0.535,0.127,0.729,0.015l4.571-2.639c0.194-0.112,0.182-0.301-0.026-0.421l-5.286-3.052
			C244.866,287.553,244.54,287.547,244.346,287.659z M236.258,292.328l-4.571,2.639c-0.194,0.112-0.182,0.3,0.026,0.421l5.285,3.052
			c0.209,0.12,0.535,0.127,0.729,0.015l4.571-2.639c0.194-0.112,0.182-0.301-0.026-0.421l-5.286-3.052
			C236.779,292.222,236.452,292.216,236.258,292.328z M251.026,283.802l-4.571,2.639c-0.194,0.112-0.183,0.301,0.026,0.421
			l5.286,3.051c0.208,0.12,0.535,0.127,0.729,0.015l4.571-2.639c0.194-0.112,0.183-0.301-0.026-0.421l-5.285-3.052
			C251.547,283.696,251.221,283.689,251.026,283.802z M216.446,319.461l4.571-2.639c0.194-0.112,0.183-0.301-0.026-0.421
			l-5.285-3.052c-0.209-0.12-0.535-0.127-0.729-0.015l-4.571,2.639c-0.194,0.112-0.182,0.3,0.026,0.421l5.286,3.052
			C215.925,319.566,216.251,319.573,216.446,319.461z M258.436,279.959c-0.208-0.12-0.535-0.127-0.729-0.015l-4.571,2.639
			c-0.194,0.112-0.183,0.301,0.026,0.421l5.286,3.052c0.208,0.121,0.535,0.127,0.729,0.015l4.571-2.639
			c0.194-0.112,0.183-0.3-0.026-0.421L258.436,279.959z M192.35,342.092l4.571-2.639c0.194-0.112,0.183-0.301-0.026-0.421
			l-5.285-3.052c-0.209-0.12-0.535-0.127-0.729-0.015l-4.571,2.64c-0.194,0.112-0.182,0.301,0.026,0.421l5.285,3.052
			C191.829,342.197,192.156,342.204,192.35,342.092z M274.279,294.79l4.571-2.639c0.194-0.112,0.182-0.301-0.026-0.421l-5.286-3.051
			c-0.209-0.121-0.535-0.127-0.729-0.015l-4.571,2.639c-0.194,0.112-0.183,0.301,0.026,0.421l5.286,3.051
			C273.758,294.895,274.085,294.902,274.279,294.79z M260.047,294.288l4.571-2.639c0.194-0.112,0.182-0.3-0.026-0.421l-5.286-3.052
			c-0.208-0.12-0.535-0.127-0.729-0.015l-4.571,2.639c-0.194,0.113-0.183,0.301,0.026,0.421l5.286,3.052
			C259.526,294.393,259.853,294.4,260.047,294.288z M265.987,284.319c-0.208-0.121-0.535-0.127-0.729-0.015l-4.571,2.64
			c-0.194,0.112-0.182,0.301,0.026,0.421l5.286,3.052c0.208,0.12,0.535,0.127,0.729,0.015l4.571-2.639
			c0.194-0.112,0.183-0.301-0.026-0.421L265.987,284.319z M267.394,283.507l12.836,7.411c0.209,0.12,0.535,0.127,0.729,0.015
			l4.571-2.639c0.194-0.112,0.183-0.301-0.026-0.421l-12.837-7.411c-0.209-0.12-0.535-0.127-0.729-0.015l-4.571,2.639
			C267.174,283.198,267.185,283.386,267.394,283.507z M251.896,292.018l-4.571,2.639c-0.194,0.112-0.183,0.301,0.026,0.421
			l5.286,3.051c0.209,0.121,0.535,0.128,0.729,0.015l4.571-2.639c0.194-0.112,0.183-0.301-0.026-0.421l-5.285-3.052
			C252.417,291.913,252.09,291.906,251.896,292.018z M201.614,321.048l-4.571,2.64c-0.194,0.112-0.183,0.301,0.026,0.421
			l5.285,3.052c0.209,0.12,0.535,0.127,0.729,0.015l4.571-2.639c0.194-0.112,0.182-0.301-0.026-0.421l-5.285-3.052
			C202.135,320.943,201.808,320.936,201.614,321.048z M266.869,298.632c0.208,0.12,0.535,0.127,0.729,0.015l4.571-2.639
			c0.194-0.112,0.182-0.301-0.026-0.421l-5.286-3.052c-0.208-0.12-0.535-0.127-0.729-0.015l-4.571,2.64
			c-0.194,0.112-0.183,0.301,0.026,0.421L266.869,298.632z M208.295,317.192l-4.571,2.639c-0.194,0.112-0.182,0.301,0.026,0.421
			l5.285,3.052c0.209,0.12,0.535,0.127,0.729,0.015l4.571-2.639c0.194-0.112,0.183-0.301-0.026-0.421l-5.285-3.052
			C208.816,317.086,208.489,317.08,208.295,317.192z M158.217,361.363c0.209,0.12,0.535,0.127,0.729,0.015l4.571-2.639
			c0.194-0.112,0.182-0.301-0.026-0.421l-5.286-3.052c-0.208-0.12-0.535-0.127-0.729-0.015l-4.571,2.639
			c-0.194,0.112-0.182,0.301,0.026,0.421L158.217,361.363z M148.167,351.906l-4.571,2.639c-0.194,0.112-0.182,0.301,0.026,0.421
			l5.286,3.052c0.209,0.12,0.535,0.127,0.729,0.015l4.571-2.639c0.194-0.112,0.183-0.301-0.026-0.421l-5.285-3.052
			C148.688,351.801,148.361,351.794,148.167,351.906z M165.626,357.52l4.571-2.639c0.194-0.112,0.183-0.301-0.025-0.421
			l-5.286-3.051c-0.208-0.12-0.535-0.128-0.729-0.015l-4.571,2.639c-0.194,0.112-0.182,0.301,0.026,0.421l5.286,3.051
			C165.106,357.626,165.432,357.633,165.626,357.52z M172.307,353.664l4.571-2.639c0.194-0.112,0.183-0.301-0.025-0.421
			l-5.286-3.052c-0.208-0.12-0.535-0.127-0.729-0.015l-4.571,2.639c-0.194,0.112-0.183,0.301,0.026,0.421l5.286,3.052
			C171.787,353.769,172.113,353.775,172.307,353.664z M178.988,349.806l4.571-2.639c0.194-0.113,0.182-0.301-0.026-0.421
			l-5.286-3.052c-0.208-0.12-0.535-0.127-0.729-0.014l-4.571,2.639c-0.194,0.112-0.183,0.301,0.026,0.421l5.285,3.052
			C178.468,349.911,178.794,349.918,178.988,349.806z M154.848,348.049l-4.571,2.639c-0.194,0.112-0.182,0.301,0.025,0.421
			l5.286,3.051c0.208,0.121,0.535,0.127,0.729,0.015l4.571-2.639c0.194-0.112,0.183-0.301-0.026-0.421l-5.286-3.051
			C155.369,347.944,155.042,347.937,154.848,348.049z M161.529,344.192l-4.571,2.639c-0.194,0.112-0.183,0.301,0.026,0.421
			l5.286,3.052c0.209,0.12,0.535,0.127,0.729,0.015l4.571-2.639c0.194-0.112,0.182-0.3-0.026-0.421l-5.285-3.052
			C162.049,344.087,161.723,344.08,161.529,344.192z M188.252,328.763l-4.571,2.639c-0.194,0.112-0.183,0.301,0.026,0.421
			l5.286,3.051c0.209,0.121,0.535,0.127,0.729,0.015l4.571-2.639c0.194-0.112,0.183-0.301-0.025-0.421l-5.286-3.051
			C188.773,328.658,188.447,328.651,188.252,328.763z M181.571,332.62L177,335.259c-0.194,0.112-0.183,0.301,0.026,0.421
			l5.286,3.052c0.209,0.12,0.535,0.127,0.729,0.015l4.571-2.639c0.194-0.112,0.183-0.301-0.026-0.421l-5.286-3.052
			C182.092,332.515,181.766,332.508,181.571,332.62z M194.933,324.906l-4.571,2.639c-0.194,0.112-0.182,0.301,0.026,0.421
			l5.285,3.052c0.209,0.12,0.535,0.127,0.729,0.015l4.571-2.639c0.194-0.112,0.182-0.3-0.026-0.421l-5.285-3.052
			C195.454,324.801,195.127,324.794,194.933,324.906z M168.21,340.335l-4.571,2.639c-0.194,0.112-0.183,0.301,0.026,0.421
			l5.286,3.052c0.208,0.12,0.535,0.127,0.729,0.015l4.571-2.639c0.194-0.112,0.183-0.301-0.026-0.421l-5.286-3.051
			C168.73,340.23,168.404,340.223,168.21,340.335z M174.89,336.478l-4.571,2.639c-0.194,0.112-0.183,0.301,0.026,0.421l5.286,3.052
			c0.208,0.12,0.535,0.127,0.729,0.015l4.571-2.64c0.194-0.112,0.183-0.301-0.026-0.421l-5.286-3.052
			C175.411,336.372,175.085,336.366,174.89,336.478z M170.013,363.707l4.571-2.639c0.194-0.112,0.182-0.3-0.026-0.421l-5.286-3.052
			c-0.209-0.12-0.535-0.127-0.729-0.015l-4.571,2.639c-0.194,0.112-0.183,0.301,0.026,0.421l5.285,3.052
			C169.492,363.812,169.819,363.819,170.013,363.707z M130.808,359.749l-5.286-3.052c-0.209-0.12-0.535-0.127-0.729-0.015
			l-4.571,2.639c-0.194,0.112-0.183,0.3,0.026,0.421l5.285,3.052c0.209,0.12,0.535,0.127,0.729,0.015l4.571-2.639
			C131.028,360.058,131.016,359.869,130.808,359.749z M140.82,362.688l-5.286-3.051c-0.208-0.121-0.535-0.128-0.729-0.015
			l-7.033,4.06c-0.194,0.112-0.182,0.301,0.026,0.421l5.286,3.051c0.209,0.12,0.535,0.128,0.729,0.015l7.032-4.06
			C141.04,362.996,141.028,362.808,140.82,362.688z M122.698,353.849l-5.285-3.051c-0.209-0.12-0.535-0.128-0.729-0.015
			l-5.626,3.248c-0.194,0.112-0.183,0.301,0.026,0.421l5.285,3.052c0.209,0.12,0.535,0.127,0.729,0.015l5.626-3.248
			C122.919,354.158,122.907,353.969,122.698,353.849z M127.012,351.359c0.208,0.121,0.535,0.127,0.729,0.015l4.571-2.64
			c0.194-0.112,0.183-0.3-0.026-0.421L127,345.262c-0.208-0.12-0.535-0.127-0.729-0.015l-4.571,2.639
			c-0.195,0.112-0.183,0.301,0.025,0.421L127.012,351.359z M150.129,366.032l-5.285-3.052c-0.209-0.12-0.535-0.127-0.729-0.014
			l-8.791,5.075c-0.194,0.112-0.182,0.301,0.026,0.421l5.285,3.052c0.209,0.12,0.535,0.127,0.729,0.015l8.791-5.075
			C150.349,366.341,150.338,366.152,150.129,366.032z M154.516,372.218l-5.286-3.051c-0.208-0.12-0.535-0.128-0.729-0.015
			l-5.626,3.248c-0.194,0.112-0.183,0.301,0.026,0.421l5.286,3.052c0.208,0.12,0.535,0.127,0.729,0.015l5.626-3.248
			C154.736,372.528,154.724,372.339,154.516,372.218z M176.685,322.68c0.208,0.12,0.535,0.127,0.729,0.015l4.571-2.639
			c0.194-0.112,0.183-0.3-0.026-0.421l-5.285-3.052c-0.209-0.121-0.535-0.127-0.73-0.015l-4.571,2.639
			c-0.194,0.112-0.183,0.301,0.026,0.421L176.685,322.68z M163.323,330.395c0.209,0.121,0.535,0.127,0.729,0.015l4.571-2.639
			c0.194-0.112,0.182-0.3-0.026-0.421l-5.285-3.052c-0.208-0.12-0.535-0.127-0.729-0.015l-4.571,2.639
			c-0.194,0.112-0.182,0.301,0.025,0.421L163.323,330.395z M133.692,347.501c0.209,0.12,0.535,0.128,0.729,0.015l4.571-2.639
			c0.194-0.112,0.183-0.301-0.026-0.421l-5.286-3.052c-0.208-0.12-0.535-0.127-0.729-0.015l-4.571,2.639
			c-0.194,0.112-0.183,0.301,0.026,0.421L133.692,347.501z M170.004,326.537c0.209,0.121,0.535,0.128,0.729,0.015l4.571-2.639
			c0.194-0.112,0.182-0.301-0.026-0.421l-5.285-3.052c-0.209-0.12-0.535-0.127-0.729-0.015l-4.571,2.639
			c-0.194,0.112-0.183,0.301,0.026,0.421L170.004,326.537z M156.642,334.252c0.209,0.12,0.535,0.127,0.729,0.014l4.571-2.639
			c0.194-0.112,0.183-0.301-0.026-0.421l-5.285-3.051c-0.209-0.12-0.535-0.127-0.729-0.015l-4.571,2.639
			c-0.194,0.112-0.182,0.301,0.026,0.421L156.642,334.252z M158.188,372.715c-0.209-0.12-0.535-0.128-0.729-0.015l-7.033,4.06
			c-0.194,0.112-0.183,0.301,0.026,0.421l5.286,3.051c0.209,0.121,0.535,0.128,0.729,0.015l7.032-4.06
			c0.194-0.112,0.182-0.301-0.026-0.421L158.188,372.715z M147.054,339.787c0.209,0.12,0.535,0.127,0.729,0.015l4.571-2.639
			c0.194-0.112,0.182-0.301-0.026-0.421l-5.285-3.052c-0.209-0.12-0.535-0.127-0.729-0.015l-4.571,2.639
			c-0.194,0.112-0.182,0.301,0.026,0.421L147.054,339.787z M140.373,343.644c0.209,0.12,0.535,0.127,0.729,0.015l4.571-2.639
			c0.194-0.112,0.183-0.301-0.026-0.421l-5.286-3.052c-0.209-0.121-0.535-0.127-0.729-0.015l-4.571,2.639
			c-0.194,0.112-0.182,0.301,0.026,0.421L140.373,343.644z M281.959,301.255c-0.209-0.12-0.535-0.127-0.729-0.015l-11.252,6.496
			c-0.194,0.112-0.183,0.301,0.026,0.421l5.286,3.051c0.208,0.12,0.535,0.127,0.729,0.015l11.252-6.496
			c0.194-0.112,0.183-0.3-0.026-0.421L281.959,301.255z M267.191,309.781c-0.209-0.12-0.535-0.127-0.729-0.015l-4.571,2.639
			c-0.194,0.112-0.182,0.301,0.026,0.421l5.285,3.052c0.209,0.12,0.535,0.127,0.729,0.014l4.571-2.639
			c0.194-0.112,0.182-0.301-0.026-0.421L267.191,309.781z M176.694,359.85l4.571-2.639c0.194-0.112,0.182-0.301-0.026-0.421
			l-5.286-3.052c-0.209-0.12-0.535-0.127-0.729-0.015l-4.571,2.639c-0.194,0.112-0.183,0.3,0.026,0.421l5.285,3.052
			C176.173,359.955,176.5,359.962,176.694,359.85z M253.829,317.495c-0.209-0.12-0.535-0.127-0.729-0.015l-4.571,2.639
			c-0.194,0.113-0.182,0.301,0.026,0.421l5.285,3.052c0.209,0.12,0.535,0.127,0.729,0.015l4.571-2.639
			c0.194-0.112,0.183-0.301-0.026-0.421L253.829,317.495z M288.64,297.397c-0.209-0.121-0.535-0.127-0.729-0.015l-4.571,2.639
			c-0.194,0.112-0.182,0.301,0.026,0.421l5.285,3.052c0.209,0.12,0.535,0.127,0.729,0.015l4.571-2.639
			c0.194-0.112,0.183-0.301-0.026-0.421L288.64,297.397z M300.607,296.592l-12.837-7.412c-0.209-0.12-0.535-0.127-0.729-0.015
			l-4.571,2.639c-0.194,0.112-0.183,0.301,0.026,0.421l12.837,7.412c0.209,0.12,0.535,0.127,0.729,0.015l4.571-2.64
			C300.827,296.901,300.815,296.712,300.607,296.592z M228.864,331.909c-0.208-0.121-0.535-0.127-0.729-0.015l-5.626,3.248
			c-0.194,0.112-0.183,0.301,0.026,0.421l5.286,3.051c0.209,0.12,0.535,0.127,0.729,0.015l5.626-3.248
			c0.194-0.112,0.183-0.301-0.026-0.421L228.864,331.909z M245.742,322.165c-0.209-0.12-0.535-0.127-0.729-0.015l-7.033,4.06
			c-0.194,0.112-0.182,0.3,0.026,0.421l5.286,3.052c0.208,0.12,0.535,0.127,0.729,0.015l7.033-4.06
			c0.194-0.112,0.183-0.3-0.026-0.421L245.742,322.165z M213.393,340.842c-0.209-0.12-0.535-0.127-0.729-0.015l-37.624,21.722
			c-0.194,0.112-0.183,0.301,0.026,0.421l5.286,3.052c0.208,0.121,0.535,0.128,0.729,0.015l37.624-21.722
			c0.194-0.112,0.183-0.301-0.026-0.421L213.393,340.842z M173.659,363.782c-0.209-0.12-0.535-0.127-0.729-0.015l-5.626,3.248
			c-0.194,0.112-0.182,0.301,0.026,0.421l5.285,3.052c0.209,0.12,0.535,0.127,0.729,0.014l5.626-3.248
			c0.194-0.112,0.182-0.3-0.026-0.421L173.659,363.782z M221.128,336.375c-0.208-0.121-0.535-0.127-0.729-0.015l-5.626,3.248
			c-0.194,0.112-0.183,0.301,0.026,0.421l5.286,3.051c0.208,0.121,0.535,0.128,0.729,0.016l5.626-3.249
			c0.194-0.112,0.183-0.3-0.026-0.421L221.128,336.375z M165.923,368.248c-0.208-0.12-0.535-0.127-0.729-0.015l-5.626,3.248
			c-0.194,0.112-0.182,0.301,0.026,0.421l5.285,3.052c0.209,0.12,0.535,0.127,0.729,0.015l5.626-3.248
			c0.194-0.112,0.183-0.301-0.026-0.421L165.923,368.248z M236.6,327.443c-0.209-0.121-0.535-0.128-0.729-0.015l-5.626,3.248
			c-0.194,0.112-0.182,0.301,0.026,0.421l5.286,3.052c0.208,0.121,0.535,0.127,0.729,0.015l5.626-3.248
			c0.194-0.112,0.182-0.301-0.026-0.421L236.6,327.443z M260.51,313.638c-0.209-0.12-0.535-0.127-0.729-0.015l-4.571,2.639
			c-0.194,0.112-0.182,0.3,0.026,0.421l5.286,3.052c0.208,0.12,0.535,0.127,0.729,0.015l4.571-2.639
			c0.194-0.112,0.182-0.301-0.026-0.421L260.51,313.638z M275.149,303.007l4.571-2.639c0.194-0.112,0.183-0.301-0.025-0.421
			l-5.286-3.051c-0.208-0.12-0.535-0.127-0.729-0.015l-4.571,2.639c-0.194,0.112-0.182,0.301,0.026,0.421l5.286,3.051
			C274.628,303.112,274.955,303.119,275.149,303.007z M245.279,302.814l4.571-2.639c0.194-0.112,0.183-0.301-0.025-0.421
			l-5.286-3.051c-0.208-0.121-0.535-0.128-0.729-0.015l-4.571,2.639c-0.195,0.112-0.183,0.301,0.026,0.421l5.285,3.051
			C244.758,302.92,245.084,302.927,245.279,302.814z M230.141,328.992l13.362-7.715c0.194-0.112,0.182-0.301-0.026-0.421
			l-5.285-3.052c-0.208-0.12-0.535-0.127-0.729-0.015l-13.362,7.714c-0.194,0.112-0.183,0.301,0.026,0.421l5.286,3.051
			C229.62,329.098,229.947,329.105,230.141,328.992z M267.739,306.849c0.208,0.12,0.535,0.127,0.729,0.015l4.571-2.639
			c0.194-0.112,0.183-0.301-0.026-0.421l-5.286-3.052c-0.208-0.12-0.535-0.127-0.729-0.015l-4.572,2.639
			c-0.194,0.112-0.182,0.301,0.026,0.421L267.739,306.849z M260.917,302.505l4.571-2.64c0.194-0.112,0.182-0.301-0.026-0.421
			l-5.286-3.052c-0.209-0.121-0.535-0.127-0.729-0.015l-4.571,2.639c-0.194,0.112-0.183,0.301,0.026,0.421l5.286,3.052
			C260.396,302.61,260.723,302.617,260.917,302.505z M223.46,332.85l4.571-2.639c0.194-0.112,0.183-0.3-0.026-0.421l-5.285-3.052
			c-0.209-0.121-0.535-0.127-0.729-0.015l-4.571,2.639c-0.194,0.112-0.182,0.3,0.026,0.421l5.286,3.052
			C222.939,332.955,223.266,332.962,223.46,332.85z M252.971,315.376c0.209,0.12,0.535,0.127,0.729,0.015l4.571-2.639
			c0.194-0.112,0.182-0.301-0.026-0.421l-5.286-3.052c-0.209-0.121-0.535-0.127-0.729-0.015l-4.571,2.639
			c-0.194,0.112-0.183,0.301,0.026,0.421L252.971,315.376z M190.056,352.136l4.571-2.639c0.194-0.112,0.182-0.3-0.026-0.421
			l-5.286-3.052c-0.208-0.121-0.535-0.127-0.729-0.015l-4.571,2.639c-0.194,0.112-0.182,0.3,0.025,0.421l5.286,3.052
			C189.535,352.241,189.861,352.248,190.056,352.136z M196.737,348.278l4.571-2.639c0.194-0.112,0.182-0.301-0.026-0.421
			l-5.286-3.052c-0.208-0.12-0.534-0.127-0.729-0.014l-4.571,2.639c-0.194,0.112-0.183,0.301,0.026,0.421l5.286,3.051
			C196.216,348.384,196.542,348.391,196.737,348.278z M183.375,355.993l4.571-2.639c0.194-0.112,0.183-0.301-0.026-0.421
			l-5.286-3.051c-0.209-0.12-0.535-0.128-0.729-0.015l-4.571,2.639c-0.194,0.112-0.182,0.301,0.026,0.421l5.286,3.052
			C182.854,356.098,183.18,356.105,183.375,355.993z M210.098,340.564l4.571-2.639c0.194-0.112,0.183-0.301-0.026-0.421
			l-5.286-3.052c-0.208-0.12-0.535-0.127-0.729-0.015l-4.571,2.639c-0.194,0.112-0.183,0.3,0.026,0.421l5.285,3.052
			C209.577,340.669,209.904,340.676,210.098,340.564z M203.417,344.421l4.571-2.639c0.194-0.112,0.183-0.3-0.026-0.421l-5.286-3.052
			c-0.208-0.12-0.535-0.127-0.729-0.015l-4.571,2.639c-0.194,0.112-0.182,0.301,0.026,0.421l5.286,3.052
			C202.897,344.526,203.223,344.533,203.417,344.421z M216.779,336.707l4.571-2.639c0.194-0.112,0.182-0.301-0.026-0.421
			l-5.286-3.051c-0.209-0.12-0.535-0.128-0.729-0.015l-4.571,2.639c-0.194,0.112-0.182,0.301,0.026,0.421l5.285,3.052
			C216.258,336.812,216.585,336.819,216.779,336.707z M247.344,279.645c0.209,0.12,0.535,0.127,0.729,0.015l4.571-2.639
			c0.194-0.112,0.182-0.3-0.026-0.421l-1.407-0.813c-0.209-0.12-0.535-0.127-0.73-0.015l-4.571,2.639
			c-0.194,0.112-0.182,0.3,0.026,0.421L247.344,279.645z M214.473,300.863c0.208,0.12,0.535,0.128,0.729,0.015l4.571-2.639
			c0.194-0.112,0.183-0.301-0.026-0.421l-5.285-3.051c-0.209-0.121-0.535-0.128-0.729-0.016l-4.571,2.639
			c-0.194,0.112-0.183,0.301,0.025,0.421L214.473,300.863z M227.835,293.149c0.208,0.12,0.535,0.127,0.729,0.015l4.571-2.639
			c0.194-0.112,0.182-0.301-0.026-0.421l-5.286-3.052c-0.209-0.12-0.535-0.127-0.729-0.015l-4.571,2.639
			c-0.194,0.112-0.182,0.301,0.026,0.421L227.835,293.149z M206.315,305.573c0.209,0.12,0.535,0.127,0.729,0.015l4.571-2.639
			c0.194-0.112,0.182-0.301-0.026-0.421l-5.285-3.052c-0.209-0.12-0.535-0.127-0.729-0.014l-4.571,2.639
			c-0.194,0.112-0.183,0.301,0.026,0.421L206.315,305.573z M221.154,297.006c0.208,0.12,0.535,0.127,0.729,0.015l4.571-2.639
			c0.194-0.112,0.182-0.301-0.026-0.421l-5.286-3.052c-0.208-0.121-0.535-0.127-0.729-0.015l-4.571,2.639
			c-0.194,0.112-0.183,0.301,0.026,0.421L221.154,297.006z M192.953,313.288c0.209,0.12,0.535,0.127,0.729,0.014l4.571-2.639
			c0.194-0.112,0.183-0.301-0.025-0.421l-5.286-3.051c-0.209-0.121-0.535-0.127-0.729-0.015l-4.571,2.639
			c-0.194,0.112-0.182,0.301,0.026,0.421L192.953,313.288z M199.634,309.43c0.209,0.12,0.535,0.127,0.729,0.015l4.571-2.639
			c0.194-0.112,0.182-0.3-0.026-0.421l-5.286-3.052c-0.209-0.12-0.535-0.127-0.729-0.015l-4.571,2.639
			c-0.194,0.112-0.182,0.301,0.026,0.421L199.634,309.43z M233.982,287.36c0.209,0.12,0.535,0.127,0.729,0.015l4.571-2.639
			c0.194-0.112,0.182-0.3-0.026-0.421l-1.407-0.812c-0.208-0.12-0.535-0.127-0.729-0.015l-4.571,2.64
			c-0.194,0.112-0.183,0.3,0.026,0.421L233.982,287.36z M254.025,275.788c0.209,0.12,0.535,0.127,0.729,0.015l4.571-2.639
			c0.194-0.112,0.182-0.301-0.026-0.421l-1.407-0.813c-0.209-0.12-0.535-0.127-0.729-0.014l-4.571,2.639
			c-0.194,0.112-0.183,0.301,0.026,0.421L254.025,275.788z M265.128,282.199c0.209,0.12,0.535,0.127,0.729,0.015l4.571-2.639
			c0.194-0.112,0.182-0.301-0.026-0.421l-5.286-3.052c-0.208-0.121-0.535-0.127-0.729-0.015l-4.571,2.639
			c-0.194,0.112-0.183,0.301,0.026,0.421L265.128,282.199z M281.83,299.15l4.571-2.64c0.194-0.112,0.183-0.3-0.025-0.421
			l-5.286-3.052c-0.208-0.121-0.535-0.127-0.729-0.015l-4.571,2.639c-0.194,0.112-0.182,0.301,0.026,0.421l5.285,3.052
			C281.309,299.255,281.635,299.262,281.83,299.15z M240.663,283.502c0.209,0.121,0.535,0.128,0.729,0.015l4.571-2.639
			c0.194-0.112,0.182-0.301-0.026-0.421l-1.407-0.812c-0.209-0.121-0.535-0.127-0.729-0.015l-4.571,2.639
			c-0.194,0.112-0.182,0.301,0.026,0.421L240.663,283.502z M186.272,317.145c0.209,0.12,0.535,0.127,0.729,0.015l4.571-2.639
			c0.194-0.112,0.183-0.301-0.026-0.421l-5.286-3.052c-0.209-0.121-0.535-0.127-0.729-0.015l-4.571,2.639
			c-0.194,0.112-0.182,0.3,0.026,0.421L186.272,317.145z"/>
		<path id="XMLID_2047_" style="opacity:0.3;" d="M215.899,357.246l45.109-26.044c1.359-0.785,3.564-0.785,4.923,0l25.867,14.934
			c1.359,0.785,1.359,2.057,0,2.842l-45.109,26.044c-1.36,0.785-3.564,0.785-4.923,0l-25.866-14.934
			C214.54,359.304,214.54,358.031,215.899,357.246z"/>
		<path id="XMLID_2046_" style="fill:#27DEBF;" d="M67.187,340.884c0.379,0.218,0.805,0.398,1.26,0.54
			c-0.455-0.133-0.881-0.313-1.26-0.531c-0.133-0.076-0.265-0.161-0.389-0.256C66.921,340.723,67.054,340.808,67.187,340.884z"/>
		<path id="XMLID_2045_" style="opacity:0.3;" d="M236.49,104.983c-0.294-2.122-1.999-2.899-4.065-1.705L75.136,194.093
			c-1.137,0.654-2.151,1.762-2.899,3.051l-7.693-4.434c0.739-1.279,1.762-2.407,2.899-3.06l157.289-90.815
			c2.264-1.307,5.827-1.374,7.949-0.142C234.623,99.81,236.234,102.52,236.49,104.983z"/>
		<path id="XMLID_2044_" style="fill:#27DEBF;" d="M74.368,341.272c0.019-0.028,0.038-0.038,0.066-0.057
			c-0.019,0.019-0.038,0.028-0.047,0.047C74.378,341.272,74.378,341.272,74.368,341.272z"/>
		<path id="XMLID_2043_" style="opacity:0.5;" d="M359.689,323.119c0,2.454-1.838,5.505-4.103,6.812l-157.289,90.805
			c-1.127,0.654-2.615,0.966-4.102,0.966v-8.868c1.488,0,2.975-0.332,4.102-0.985l157.289-90.805
			c2.113-1.232,2.255-3.155,0.417-4.472C358.069,317.993,359.689,320.817,359.689,323.119z"/>
	</g>
</g>
<g id="Padlock">
	<g id="XMLID_3642_">
		<g id="XMLID_3640_">
			<g id="XMLID_2715_">
				<path id="XMLID_2717_" style="fill:#27DEBF;" d="M460.366,245.362c0.002-0.003,0.004-0.006,0.007-0.009l-18.386-10.596
					c0,0-0.001,0.009-0.001,0.011c-0.401-0.221-0.996-0.073-1.717,0.479c-0.374,0.286-0.755,0.56-1.143,0.822
					c-0.139,0.094-0.282,0.179-0.422,0.27c-0.252,0.163-0.502,0.328-0.759,0.481c-0.178,0.107-0.361,0.204-0.542,0.306
					c-0.223,0.126-0.445,0.255-0.672,0.373c-0.205,0.107-0.415,0.206-0.622,0.308c-0.206,0.101-0.411,0.204-0.619,0.299
					c-0.228,0.104-0.46,0.2-0.691,0.297c-0.191,0.08-0.381,0.163-0.574,0.239c-0.249,0.098-0.501,0.187-0.752,0.277
					c-0.176,0.063-0.352,0.128-0.53,0.187c-0.27,0.09-0.542,0.171-0.814,0.252c-0.16,0.047-0.32,0.096-0.481,0.141
					c-0.289,0.079-0.58,0.151-0.871,0.22c-0.144,0.034-0.288,0.069-0.432,0.101c-0.308,0.067-0.617,0.128-0.926,0.183
					c-0.127,0.023-0.253,0.046-0.38,0.067c-0.327,0.054-0.654,0.1-0.981,0.141c-0.108,0.013-0.216,0.027-0.324,0.039
					c-0.344,0.038-0.688,0.069-1.031,0.093c-0.091,0.006-0.181,0.012-0.272,0.017c-0.359,0.021-0.718,0.034-1.076,0.039
					c-0.073,0.001-0.145,0.001-0.217,0.002c-0.374,0.001-0.747-0.005-1.119-0.02c-0.054-0.002-0.107-0.006-0.161-0.008
					c-0.387-0.019-0.773-0.047-1.156-0.085c-0.037-0.004-0.073-0.008-0.11-0.012c-0.398-0.042-0.794-0.093-1.187-0.156
					c-0.019-0.003-0.038-0.007-0.057-0.01c-0.336-0.055-0.453-0.082-0.55-0.114l-11.403-6.572l0,0.001
					c-0.84-0.476-1.613-0.13-2.106,1.094c-6.621,16.442-20.725,33.11-30.128,37.277c-0.183,0.081-0.361,0.176-0.535,0.28
					c-0.115,0.068-0.224,0.147-0.334,0.224c-0.049,0.035-0.1,0.066-0.148,0.103c-0.142,0.107-0.276,0.222-0.407,0.343
					c-0.009,0.008-0.018,0.016-0.027,0.024c-0.141,0.131-0.272,0.269-0.397,0.414l-0.001,0.001l0,0
					c-0.657,0.764-1.083,1.702-1.047,2.684l1.353,16.702c0,10.767,4.586,22.129,13.932,27.563l0,0l0.003,0.002
					c0.001,0,0.001,0.001,0.002,0.001l18.375,10.59l0.002,0.001l0.129,0.075l-0.001-0.005c4.227,2.421,9.416,3.638,15.588,3.049
					c1.736-0.166,4.144-1.421,5.357-2.674c20.553-21.231,30.547-49.965,30.547-65.86l1.358-18.398
					C460.936,246.082,460.732,245.567,460.366,245.362z"/>
				<path id="XMLID_2661_" style="opacity:0.4;fill:#FFFFFF;" d="M427.636,243.934c-0.413-0.194-0.817-0.168-1.162,0.059
					c-0.067,0.042-0.135,0.093-0.202,0.152c-0.109,0.101-0.21,0.227-0.312,0.37c-0.008,0.008-0.017,0.025-0.025,0.042
					c-0.093,0.16-0.185,0.337-0.27,0.547c-1.65,4.109-3.772,8.235-6.181,12.176c-2.105,3.461-4.429,6.778-6.837,9.827
					c-1.196,1.499-2.4,2.93-3.612,4.277c-0.008,0.017-0.017,0.034-0.034,0.042c-0.345,0.379-0.682,0.749-1.019,1.111
					c-0.009,0.008-0.017,0.025-0.034,0.042c-0.345,0.354-0.682,0.707-1.019,1.052c-0.169,0.185-0.337,0.362-0.522,0.539
					c-3.857,3.873-7.637,6.778-10.871,8.21c-0.547,0.244-1.061,0.589-1.49,1.01c-0.126,0.118-0.244,0.236-0.362,0.371v0.008
					c-0.025,0.034-0.051,0.059-0.076,0.093c0.017-0.034,0.042-0.059,0.067-0.093l-18.357-10.585
					c0.017-0.025,0.034-0.042,0.059-0.067c0.034-0.05,0.076-0.101,0.126-0.151c0.034-0.034,0.067-0.067,0.109-0.101
					c0.025-0.034,0.059-0.059,0.093-0.093c0.034-0.034,0.067-0.067,0.109-0.101c0.008-0.008,0.017-0.017,0.025-0.017
					c0.101-0.093,0.194-0.177,0.295-0.253c0.051-0.034,0.101-0.067,0.151-0.101c0.109-0.076,0.219-0.16,0.337-0.227
					c0.168-0.101,0.354-0.202,0.531-0.278c9.406-4.168,23.51-20.841,30.128-37.277c0.354-0.876,0.85-1.305,1.406-1.305
					c0.228,0,0.463,0.076,0.699,0.21l11.41,6.568L427.636,243.934z"/>
				<path id="XMLID_2925_" style="opacity:0.1;" d="M460.367,245.358c0,0,0,0,0.008-0.008l-18.39-10.593v0.008
					c-0.404-0.219-0.994-0.067-1.718,0.48c-0.37,0.286-0.758,0.564-1.145,0.825c-0.135,0.093-0.278,0.177-0.421,0.27
					c-0.253,0.16-0.497,0.329-0.758,0.48c-0.177,0.109-0.362,0.202-0.539,0.312c-0.227,0.118-0.446,0.253-0.674,0.37
					c-0.202,0.109-0.413,0.202-0.623,0.303c-0.202,0.101-0.413,0.211-0.615,0.303c-0.236,0.101-0.463,0.202-0.699,0.295
					c-0.185,0.084-0.379,0.169-0.573,0.244c-0.244,0.093-0.497,0.185-0.749,0.27c-0.177,0.067-0.354,0.135-0.53,0.194
					c-0.27,0.084-0.539,0.169-0.817,0.253c-0.16,0.042-0.32,0.093-0.48,0.135c-0.286,0.084-0.581,0.152-0.867,0.219
					c-0.143,0.034-0.286,0.076-0.43,0.101c-0.312,0.067-0.623,0.135-0.926,0.185c-0.135,0.025-0.261,0.05-0.387,0.067
					c-0.32,0.059-0.648,0.101-0.977,0.143c-0.109,0.008-0.219,0.025-0.328,0.042c-0.345,0.034-0.682,0.067-1.027,0.093
					c-0.093,0-0.185,0.008-0.269,0.017c-0.362,0.017-0.724,0.034-1.078,0.034h-0.219c-0.379,0.008-0.749,0-1.12-0.017
					c-0.05,0-0.109-0.008-0.16-0.008c-0.387-0.017-0.775-0.051-1.154-0.084c-0.042-0.008-0.076-0.008-0.109-0.017
					c-0.404-0.042-0.8-0.093-1.187-0.152c-0.025,0-0.042-0.008-0.059-0.008c-0.328-0.059-0.446-0.084-0.547-0.118l6.837,3.941
					l0.121,0.063c0.236,0.126,0.452,0.35,0.688,0.611h0.008c0.042,0.042,0.084,0.093,0.126,0.143
					c7.023,8.176,20.841,8.168,30.069,1.111c0.699-0.53,1.28-0.699,1.676-0.522l0.051,0.034c0,0-0.008,0-0.008,0.008
					c0.177,0.093,0.312,0.253,0.396,0.48C460.678,245.627,460.535,245.459,460.367,245.358z"/>
				<path id="XMLID_2727_" style="opacity:0.2;" d="M407.685,330.582l-18.132-10.445h-0.006
					c-9.34-5.438-13.932-16.799-13.932-27.566l-1.352-16.701c-0.044-1.269,0.663-2.476,1.674-3.303
					c-0.221,0.19-0.436,0.398-0.625,0.619l18.371,10.584c-0.663,0.764-1.08,1.711-1.042,2.69l1.351,16.701
					C393.993,313.833,398.502,325.094,407.685,330.582z"/>
				<path id="XMLID_3718_" style="fill:#27DEBF;" d="M460.911,246.911l-1.364,18.399c0,15.898-9.995,44.628-30.541,65.865
					c-1.221,1.255-3.621,2.509-5.364,2.669c-6.172,0.589-11.359-0.623-15.586-3.048v0.009l-0.126-0.076l-0.244-0.143
					c-9.187-5.49-13.692-16.748-13.692-27.425l-1.356-16.698c-0.034-0.977,0.379-1.92,1.036-2.686l0.009-0.008
					c0.118-0.135,0.236-0.253,0.362-0.37c0.429-0.421,0.943-0.766,1.49-1.01c3.233-1.432,7.014-4.337,10.871-8.21
					c0.185-0.177,0.354-0.354,0.522-0.539c0.337-0.345,0.674-0.699,1.019-1.052c0.017-0.017,0.025-0.034,0.034-0.042
					c0.337-0.362,0.674-0.733,1.019-1.112c0.017-0.008,0.025-0.025,0.034-0.042c1.213-1.347,2.417-2.779,3.612-4.277
					c2.408-3.048,4.732-6.366,6.837-9.827c2.408-3.941,4.53-8.067,6.181-12.176c0.084-0.211,0.177-0.387,0.27-0.547
					c0.008-0.017,0.017-0.034,0.025-0.042c0.101-0.143,0.202-0.27,0.312-0.371c0.067-0.059,0.135-0.109,0.202-0.152
					c0.345-0.227,0.749-0.253,1.162-0.059l0.126,0.059c0.236,0.126,0.446,0.354,0.682,0.615h0.008
					c0.042,0.042,0.084,0.093,0.126,0.143c7.023,8.176,20.841,8.168,30.069,1.112c0.699-0.53,1.28-0.699,1.676-0.522l0.051,0.034
					c0,0-0.008,0-0.008,0.008c0.093,0.042,0.16,0.101,0.227,0.194C460.81,245.841,460.936,246.288,460.911,246.911z"/>
			</g>
			<g id="XMLID_3561_">
				<path id="XMLID_3564_" style="fill:#455A64;" d="M432.111,307.256l-10.944,6.318l1.696-19.796
					c-1.309-0.692-2.143-2.395-2.143-4.84c0-4.359,2.65-9.423,5.92-11.31c3.268-1.887,5.919,0.117,5.919,4.475
					c0,2.445-0.834,5.112-2.143,7.315L432.111,307.256z"/>
				<polygon id="XMLID_3563_" style="fill:#37474F;" points="432.111,307.256 422.199,301.534 421.167,313.574 				"/>
				<path id="XMLID_3562_" style="fill:#37474F;" d="M426.64,277.628c-2.139,1.235-4.008,3.831-5.048,6.699l8.824,5.094l0-0.003
					c1.309-2.203,2.143-4.87,2.143-7.315C432.558,277.744,429.908,275.74,426.64,277.628z"/>
			</g>
		</g>
		<g id="XMLID_3566_">
			<path id="XMLID_3568_" style="fill:#37474F;" d="M440.403,198.688c-3.039-1.754-6.863-1.558-10.49,0.536l-28.748,16.603
				c-5.81,3.354-10.192,10.943-10.192,17.652v35.217l0,0c0,0.75,0.5,1.499,1.491,2.072c1.982,1.144,5.196,1.144,7.178,0
				c0.991-0.572,1.491-1.322,1.491-2.072l0,0v-35.217c0-3.089,2.436-7.308,5.112-8.853l28.748-16.603
				c0.01-0.006,0.021-0.012,0.031-0.018c0,0.012,0,0.024,0,0.036v35.217l0,0c0,0.75,0.5,1.5,1.491,2.072
				c1.982,1.144,5.196,1.144,7.178,0c0.991-0.572,1.491-1.322,1.491-2.072l0,0v-35.217
				C445.184,203.851,443.441,200.442,440.403,198.688z"/>
			<path id="XMLID_3567_" style="fill:#263238;" d="M435.024,208.041v35.217c0,0.75,0.5,1.5,1.491,2.072
				c0.445,0.257,0.953,0.453,1.494,0.594v-39.642l-2.985,1.723C435.024,208.017,435.024,208.029,435.024,208.041z"/>
		</g>
	</g>
</g>
</svg>
