<?xml version="1.0" encoding="utf-8"?>
<!-- Generator: Adobe Illustrator 27.5.0, SVG Export Plug-In . SVG Version: 6.00 Build 0)  -->
<svg version="1.1" xmlns="http://www.w3.org/2000/svg" xmlns:xlink="http://www.w3.org/1999/xlink" x="0px" y="0px"
	 viewBox="0 0 500 500" style="enable-background:new 0 0 500 500;" xml:space="preserve">
<g id="BACKGROUND">
	<g>
		<rect style="fill:#FFFFFF;" width="500" height="500"/>
	</g>
</g>
<g id="OBJECT">
	<g>
		<g>
			<path style="fill:#D9D9D9;" d="M235.874,166.058c0,3.711-2.771,6.72-6.191,6.72h-46.23c-3.42,0-6.191-3.009-6.191-6.72V80.33
				c0-3.711,2.771-6.719,6.191-6.719h46.23c3.42,0,6.191,3.008,6.191,6.719V166.058z"/>
			<rect x="177.261" y="81.732" style="fill:#ECECEC;" width="58.613" height="79.746"/>
			<rect x="177.261" y="81.732" style="fill:#12B2FE;" width="58.613" height="20.145"/>
			<g>
				
					<ellipse transform="matrix(0.2298 -0.9732 0.9732 0.2298 32.4096 301.3127)" style="fill:#E5A72C;" cx="206.567" cy="130.181" rx="20.169" ry="20.169"/>
				<g>
					<path style="fill:#C18111;" d="M207.981,137.065v2.966h-2.592v-3.045c-1.769-0.275-3.457-1.021-4.714-2.063l1.355-2.691
						c1.414,1.238,3.535,2.063,4.969,2.063c1.1,0,1.787-0.412,1.787-1.197c0-2.436-7.267-0.982-7.267-5.854
						c0-2.102,1.493-3.555,3.87-4.006v-2.908h2.592v2.81c1.65,0.177,3.261,0.728,4.439,1.493l-1.316,2.729
						c-1.453-0.845-3.281-1.435-4.4-1.435c-0.903,0-1.512,0.334-1.512,1.002c0,2.377,7.268,1.021,7.268,5.99
						C212.46,135.356,210.554,136.77,207.981,137.065z"/>
				</g>
			</g>
			<rect x="185.316" y="85.598" style="fill:#FFFFFF;" width="23.321" height="4.736"/>
			<rect x="185.316" y="93.615" style="fill:#FFFFFF;" width="36.438" height="4.736"/>
		</g>
		<polygon style="opacity:0.3;fill:#FFFFFF;" points="235.874,81.732 217.913,81.732 177.261,122.385 177.261,161.479 
			181.265,161.479 235.874,106.869 		"/>
	</g>
	<g>
		<g>
			
				<rect x="321.757" y="174.979" transform="matrix(0.141 -0.99 0.99 0.141 107.0239 552.1351)" style="fill:#F03554;" width="99.856" height="78.829"/>
			<rect x="331.118" y="165.173" style="fill:#ECECEC;" width="78.829" height="99.856"/>
			<rect x="331.118" y="165.173" style="fill:#12B2FE;" width="78.829" height="32.235"/>
			<rect x="339.416" y="177.214" style="fill:#FFFFFF;" width="30.972" height="30.972"/>
			<rect x="339.416" y="215.881" style="fill:#FFFFFF;" width="64.538" height="6.972"/>
			<rect x="339.416" y="228.102" style="fill:#FFFFFF;" width="64.538" height="6.972"/>
			<rect x="339.416" y="240.322" style="fill:#FFFFFF;" width="64.538" height="6.972"/>
		</g>
		<g>
			<path style="fill:#12B2FE;" d="M348.787,189.151c0.054-3.948,2.401-6.267,6.295-6.267c3.672,0,5.936,1.711,5.936,4.803
				c0,4.197-4.225,4.695-4.225,8.01h-3.561c0-4.281,3.397-4.502,3.397-7.236c0-1.242-0.746-1.793-1.989-1.793
				c-1.382,0-2.152,0.799-2.181,2.512L348.787,189.151z M357.263,200.197c0,1.379-0.967,2.318-2.318,2.318
				c-1.354,0-2.293-0.939-2.293-2.318c0-1.354,0.939-2.291,2.293-2.291C356.296,197.906,357.263,198.844,357.263,200.197z"/>
		</g>
	</g>
	<g>
		<g>
			<g>
				<path style="fill:#12B2FE;" d="M212.47,270.035c0,2.76-2.239,5-5,5H97.897c-2.761,0-5-2.24-5-5v-66.549c0-2.762,2.239-5,5-5
					H207.47c2.761,0,5,2.238,5,5V270.035z"/>
				<path style="opacity:0.7;fill:#36414F;" d="M92.897,251.189v18.846c0,2.76,2.239,5,5,5H207.47c2.761,0,5-2.24,5-5v-18.846
					H92.897z"/>
			</g>
			<path style="fill:#F6BD3A;" d="M133.814,222.392c0,2.761-2.239,5-5,5h-19.75c-2.761,0-5-2.239-5-5v-7.75c0-2.761,2.239-5,5-5
				h19.75c2.761,0,5,2.239,5,5V222.392z"/>
		</g>
		<path style="opacity:0.3;fill:#FFFFFF;" d="M200.032,198.486h-56.215l-50.92,50.92v20.629c0,2.76,2.239,5,5,5h25.587
			L200.032,198.486z"/>
	</g>
	<g>
		<g>
			
				<polyline style="fill:none;stroke:#D9D9D9;stroke-width:3;stroke-linecap:round;stroke-linejoin:round;stroke-miterlimit:10;" points="
				366.432,397.576 398.692,397.576 398.692,278.697 351.422,278.697 			"/>
			
				<polyline style="fill:none;stroke:#D9D9D9;stroke-width:3;stroke-linecap:round;stroke-linejoin:round;stroke-miterlimit:10;" points="
				148.977,296.926 108.05,296.926 108.05,397.578 133.236,397.578 			"/>
		</g>
		<g>
			<ellipse style="fill:#512A7A;" cx="249.5" cy="205.22" rx="31.816" ry="43.349"/>
			<g>
				<g>
					<g>
						<g>
							<g>
								<polygon style="fill:#FFC9AB;" points="261.955,213.135 260.088,193.138 238.913,193.138 237.048,213.135 222.026,217.291 
									234.448,248.568 264.555,248.568 276.973,217.291 								"/>
							</g>
							<g>
								<path style="fill:#FFD6BB;" d="M272.353,196.98c0,11.955-10.294,21.646-22.998,21.646c-12.699,0-22.994-9.691-22.994-21.646
									c0-35.982,10.295-37.334,22.994-37.334C262.059,159.646,272.353,164.896,272.353,196.98z"/>
								<path style="fill:#FFD6BB;" d="M267.575,193.559c0,3.736,2.135,6.766,4.775,6.766c2.635,0,4.775-3.029,4.775-6.766
									c0-3.732-2.141-6.762-4.775-6.762C269.71,186.797,267.575,189.826,267.575,193.559"/>
								<path style="fill:#FFD6BB;" d="M221.88,193.559c0,3.736,2.139,6.766,4.775,6.766c2.641,0,4.783-3.029,4.783-6.766
									c0-3.732-2.143-6.762-4.783-6.762C224.019,186.797,221.88,189.826,221.88,193.559"/>
							</g>
						</g>
					</g>
				</g>
				<g>
					<path style="fill:#5D3F3F;" d="M254.355,164.191c0,0,16.332,7.412,17.784,25.27
						C272.139,189.461,282.631,151.394,254.355,164.191z"/>
				</g>
				<g>
					<path style="fill:#5D3F3F;" d="M244.216,164.191c0,0-16.33,7.412-17.783,25.27
						C226.433,189.461,215.939,151.394,244.216,164.191z"/>
				</g>
				<path style="fill:#5D3F3F;" d="M270.443,167.504c0,7.859-9.441,9.011-21.087,9.011c-11.646,0-21.088-1.151-21.088-9.011
					c0-7.86,9.441-14.232,21.088-14.232C261.002,153.271,270.443,159.644,270.443,167.504z"/>
			</g>
			<path style="opacity:0.2;fill:#36414F;" d="M278.63,185.623c1.373-5.975,0.657-17.78-6.918-22.219
				c-0.52-0.936-1.201-1.821-2-2.66c-5.191-1.979-11.632-3.16-19.596-3.16c-9.207,0-16.385,1.57-21.929,4.138
				c-0.395,0.499-0.763,1.008-1.065,1.536c-7.91,4.291-9.459,15.809-8.073,21.803c-2.513,0.568-0.47,6.402-0.47,9.823
				c0,2.206,0.795,4.167,2.031,5.44c4.248-19.48,29.616-17.49,29.616-17.49s24.133-1.886,29.259,16.1
				c0.635-1.141,1.013-2.536,1.013-4.05C280.498,191.254,281.369,185.926,278.63,185.623z"/>
			<path style="fill:#36414F;" d="M265.667,213.457c0,0-14.001,18.15-33.314,0l-6.162,2.014l23.166,30.658l24.687-30.385
				L265.667,213.457z"/>
			<g>
				<g>
					<g>
						<path style="fill:#FFD6BB;" d="M300.85,231.7c0,0,9.276,7.238,17.102,27.394c4.891,12.592,13.323,36.06,9.971,42.535
							c-11.291,21.818-68.361,24.066-68.361,24.066l-0.047-14.143c0,0,44.117-14.828,43.493-21.164
							c-0.616-6.336-19.842-37.656-19.842-37.656L300.85,231.7z"/>
					</g>
					<path style="fill:#FFD6BB;" d="M199.301,231.7c0,0-9.276,7.238-17.101,27.394c-4.891,12.592-13.324,36.06-9.972,42.535
						c11.292,21.818,68.361,24.066,68.361,24.066l0.048-14.143c0,0-44.118-14.828-43.494-21.164
						c0.615-6.336,19.842-37.656,19.842-37.656L199.301,231.7z"/>
					<g>
						<path style="fill:#6C3E96;" d="M292.351,334.707l1.751-52.359l5.261,8.932l30.674-20.166l-26.652-47.244
							c0,0-10.257-9.216-27.01-6.752L249.65,250.98l-25.809-36.242c-16.756-2.464-26.563,9.132-26.563,9.132l-23.606,44.883
							l27.629,22.527l5.267-8.932l2.952,51.959"/>
						<polygon style="fill:#512A7A;" points="201.301,291.279 206.567,282.348 197.278,223.869 173.672,268.752 						"/>
						<polygon style="fill:#512A7A;" points="299.362,291.279 294.102,282.348 303.384,223.869 330.036,271.113 						"/>
					</g>
					<path style="fill:#FFD6BB;" d="M202.055,295.412c-9.788,2.439-19.621,4.699-29.485,6.828
						c12.037,21.244,68.02,23.455,68.02,23.455l0.048-14.143C240.638,311.553,213.433,302.406,202.055,295.412z"/>
					<g>
						<g>
							<path style="fill:#FFD6BB;" d="M298.27,295.309c9.787,2.441,18.837,5.006,28.701,7.137
								c-12.037,21.244-68.021,23.453-68.021,23.453l-0.047-14.143C258.903,311.756,286.892,302.303,298.27,295.309z"/>
						</g>
						<path style="fill:#FFD6BB;" d="M279.458,320.443c-5.898,6.76-6.971,8.615-12.693,8.746
							c-4.352,0.101-10.123-2.994-13.076-6.522c-6.096-7.277,0.274-11.223,0.274-11.223s-2.594-3.965,2.648-6.209
							c5.227-2.254,18.306,3.027,18.306,3.027"/>
					</g>
					<path style="fill:#6C3E96;" d="M292.925,224.355l-10.705-11.611c0,0,10.705-64.552-32.62-67.844
						c-39.999,2.173-32.62,67.844-32.62,67.844l-8.408,10.615l42.468,36.041L292.925,224.355z M223.161,189.917
						c3.756-19.042,26.438-17.096,26.438-17.096s22.684-1.946,26.438,17.096c4.357,22.1-26.537,53.009-26.537,53.009
						S218.806,212.017,223.161,189.917z"/>
				</g>
				<path style="fill:#FFD6BB;" d="M220.083,320.24c5.898,6.758,6.97,8.613,12.693,8.744c4.352,0.103,10.123-2.994,13.075-6.52
					c6.096-7.279-0.274-11.223-0.274-11.223s2.594-3.965-2.646-6.211c-5.229-2.252-18.307,3.029-18.307,3.029"/>
			</g>
			<path style="fill:#6C3E96;" d="M280.136,171.275c0,0,7.584,15.869,8.025,19.575c0.439,3.706-3.892,19.311-9.729,25.352"/>
			<path style="fill:#6C3E96;" d="M220.597,171.275c0,0-7.584,15.869-8.025,19.575c-0.439,3.706,3.891,19.311,9.729,25.352"/>
			<g>
				<path style="fill:#36414F;" d="M272.351,187.72c0,0-4.154,2.707-22.555,2.707c-18.402,0-23.324-2.707-23.324-2.707l-0.281,6.295
					c0,0,4.676,5.134,7.209,7.173c2.531,2.039,8.166,3.45,12.235-0.245c2.689-2.444,3.775-2.237,3.775-2.237
					s1.087-0.207,3.777,2.237c4.068,3.695,9.703,2.284,12.235,0.245c2.532-2.039,6.173-6.939,6.173-6.939L272.351,187.72z"/>
				<g>
					<path style="fill:#FFDECC;" d="M264.294,195.025c-0.393-1.793-2.924-2.762-5.657-2.165c-2.73,0.599-4.629,2.536-4.235,4.329
						c0.392,1.792,2.926,2.761,5.654,2.164C262.791,198.756,264.685,196.816,264.294,195.025z"/>
					<path style="fill:#FFDECC;" d="M240.237,192.86c-2.731-0.597-5.264,0.372-5.655,2.165c-0.393,1.791,1.504,3.73,4.235,4.328
						c2.731,0.597,5.264-0.372,5.657-2.164C244.866,195.396,242.97,193.459,240.237,192.86z"/>
				</g>
			</g>
		</g>
		<path style="fill:#36414F;" d="M343.342,356.272c0,3.617-2.933,6.547-6.548,6.547H164.706c-3.615,0-6.55-2.93-6.55-6.547v-102.67
			c0-3.619,2.935-6.548,6.55-6.548h172.088c3.615,0,6.548,2.929,6.548,6.548V356.272z"/>
		<g>
			<g>
				<path style="fill:#F03554;" d="M273.419,310.574c-0.002,0.002-0.007,0.002-0.011,0h-45.03c-0.373,0-0.719-0.197-0.905-0.521
					c-0.187-0.324-0.187-0.723,0-1.045l22.515-39c0.188-0.322,0.533-0.522,0.906-0.522c0.374,0,0.719,0.199,0.907,0.522
					l22.447,38.883c0.136,0.18,0.216,0.4,0.216,0.639C274.464,310.107,273.997,310.574,273.419,310.574z"/>
			</g>
			<path style="fill:#FFFFFF;" d="M253.402,297.961h-5.007l-1.636-13.609h8.276L253.402,297.961z M253.402,300.435h-5.007v4.274
				h5.007V300.435z"/>
		</g>
		<g>
			<g>
				<g>
					<path style="fill:#D9D9D9;" d="M357.617,442.07c0,4.176-3.385,7.559-7.557,7.559H151.437c-4.172,0-7.56-3.383-7.56-7.559
						v-118.5c0-4.176,3.388-7.557,7.56-7.557H350.06c4.172,0,7.557,3.381,7.557,7.557V442.07z"/>
					<rect x="152.684" y="324.707" style="fill:#12B2FE;" width="196.131" height="100.301"/>
					<polygon style="fill:#D9D9D9;" points="393.448,454.379 108.05,454.379 108.05,448.018 126.164,440.779 363.595,437.32 
						393.448,448.018 					"/>
					<polygon style="fill:#E6E7E8;" points="357.617,434.156 143.878,434.156 108.05,448.018 393.448,448.018 					"/>
				</g>
				<g>
					<path style="fill:#FFFFFF;" d="M250.218,355.5c0,2.123-1.721,3.844-3.844,3.844h-6.726c-2.123,0-3.844-1.721-3.844-3.844
						v-6.727c0-2.123,1.721-3.844,3.844-3.844h6.726c2.123,0,3.844,1.721,3.844,3.844V355.5z"/>
					<path style="fill:#FFFFFF;" d="M336.293,355.5c0,2.123-1.722,3.844-3.844,3.844h-72.851c-2.122,0-3.844-1.721-3.844-3.844
						v-6.727c0-2.123,1.722-3.844,3.844-3.844h72.851c2.122,0,3.844,1.721,3.844,3.844V355.5z"/>
					<path style="fill:#FFFFFF;" d="M250.218,378.221c0,2.123-1.721,3.844-3.844,3.844h-6.726c-2.123,0-3.844-1.721-3.844-3.844
						v-6.727c0-2.123,1.721-3.844,3.844-3.844h6.726c2.123,0,3.844,1.721,3.844,3.844V378.221z"/>
					<path style="fill:#F03554;" d="M282.635,400.941c0,2.121-1.796,3.844-4.011,3.844h-38.81c-2.215,0-4.01-1.723-4.01-3.844
						v-6.729c0-2.121,1.795-3.844,4.01-3.844h38.81c2.215,0,4.011,1.723,4.011,3.844V400.941z"/>
					<path style="fill:#FFFFFF;" d="M335.194,400.941c0,2.121-1.795,3.844-4.01,3.844h-38.811c-2.216,0-4.011-1.723-4.011-3.844
						v-6.729c0-2.121,1.795-3.844,4.011-3.844h38.811c2.215,0,4.01,1.723,4.01,3.844V400.941z"/>
					<path style="fill:#FFFFFF;" d="M336.293,378.221c0,2.123-1.722,3.844-3.844,3.844h-72.851c-2.122,0-3.844-1.721-3.844-3.844
						v-6.727c0-2.123,1.722-3.844,3.844-3.844h72.851c2.122,0,3.844,1.721,3.844,3.844V378.221z"/>
					<path style="fill:#12B2FE;" d="M237.989,360.121h10.032c0-2.023-1.201-3.762-2.927-4.557c1.092-0.692,1.818-1.908,1.818-3.299
						c0-2.158-1.749-3.906-3.908-3.906c-2.157,0-3.906,1.748-3.906,3.906c0,1.391,0.727,2.607,1.818,3.299
						C239.19,356.359,237.989,358.098,237.989,360.121z"/>
					<path style="fill:#12B2FE;" d="M248.433,377.414l-1.756-1.5c0.178-0.48,0.288-0.996,0.288-1.539
						c0-2.467-2.002-4.469-4.469-4.469c-2.472,0-4.473,2.002-4.473,4.469c0,2.475,2.001,4.473,4.473,4.473
						c0.913,0,1.76-0.277,2.467-0.746l1.662,1.422c0.583,0.498,1.463,0.432,1.962-0.15
						C249.087,378.791,249.009,377.912,248.433,377.414z M242.496,376.565c-1.208,0-2.188-0.979-2.188-2.19
						c0-1.205,0.98-2.184,2.188-2.184c1.208,0,2.185,0.978,2.185,2.184C244.681,375.586,243.704,376.565,242.496,376.565z"/>
				</g>
				<g>
					<path style="fill:#FFFFFF;" d="M226.587,393.803c0,6.064-4.916,10.982-10.982,10.982h-37.889
						c-6.066,0-10.982-4.918-10.982-10.982v-37.891c0-6.066,4.916-10.982,10.982-10.982h37.889c6.066,0,10.982,4.916,10.982,10.982
						V393.803z"/>
					<g>
						<path style="fill:#C5C5C5;" d="M196.66,359.344c-5.612,0-10.18,4.566-10.18,10.18v11.053c0,0.73,0.589,1.316,1.315,1.316
							c0.727,0,1.315-0.586,1.315-1.316v-11.053c0-4.162,3.386-7.549,7.549-7.549c3.735,0,6.839,2.73,7.436,6.299h1.399v1.588
							h-1.287v1.07c0,0.727,0.589,1.314,1.315,1.314c0.727,0,1.315-0.588,1.315-1.314v-1.408
							C206.84,363.91,202.273,359.344,196.66,359.344z"/>
						<g>
							<path style="fill:#F6BD3A;" d="M210.999,387.822c0,2.906-2.356,5.262-5.262,5.262h-18.154c-2.905,0-5.262-2.356-5.262-5.262
								v-14.6c0-2.906,2.356-5.264,5.262-5.264h18.154c2.905,0,5.262,2.357,5.262,5.264V387.822z"/>
						</g>
						<path style="opacity:0.3;fill:#FFFFFF;" d="M205.737,367.959h-9.41l-14.006,14.006v5.857c0,2.906,2.356,5.262,5.262,5.262
							h0.766l22.121-22.121C209.623,369.191,207.83,367.959,205.737,367.959z"/>
						<path style="fill:#C18111;" d="M201.184,378.824c0-2.496-2.024-4.523-4.523-4.523c-2.499,0-4.523,2.027-4.523,4.523
							c0,1.883,1.15,3.498,2.788,4.178v3.74h3.469v-3.74C200.032,382.322,201.184,380.707,201.184,378.824z"/>
					</g>
				</g>
				<polygon style="fill:#A2C037;" points="207.626,361.486 194.445,382.44 187.518,372.131 175.868,380.242 194.445,393.084 
					221.749,368.414 				"/>
			</g>
			<polygon style="opacity:0.3;fill:#FFFFFF;" points="324.744,324.707 252.502,324.707 152.684,424.525 152.684,425.008 
				224.444,425.008 			"/>
		</g>
	</g>
	<g>
		<g>
			<path style="fill:#D9D9D9;" d="M128.132,49.842c-8.129,0-14.742,6.611-14.742,14.74V80.59c0,1.057,0.853,1.906,1.904,1.906
				c1.052,0,1.905-0.85,1.905-1.906V64.582c0-6.027,4.903-10.932,10.933-10.932c5.409,0,9.902,3.955,10.769,9.123h2.026v2.301
				h-1.863v1.547c0,1.053,0.854,1.906,1.904,1.906c1.053,0,1.906-0.854,1.906-1.906v-2.039
				C142.874,56.453,136.26,49.842,128.132,49.842z"/>
			<g>
				<path style="fill:#F6BD3A;" d="M148.895,104.855c0,4.207-3.412,7.619-7.619,7.619h-26.291c-4.207,0-7.619-3.412-7.619-7.619
					V83.711c0-4.209,3.412-7.622,7.619-7.622h26.291c4.207,0,7.619,3.413,7.619,7.622V104.855z"/>
			</g>
			<path style="opacity:0.3;fill:#FFFFFF;" d="M141.276,76.089h-13.627l-20.283,20.283v8.483c0,4.207,3.412,7.619,7.619,7.619h1.109
				l32.036-32.035C146.904,77.874,144.308,76.089,141.276,76.089z"/>
			<path style="fill:#C18111;" d="M134.683,91.824c0-3.617-2.932-6.553-6.551-6.553c-3.619,0-6.551,2.936-6.551,6.553
				c0,2.727,1.667,5.065,4.039,6.049v5.418h5.023v-5.418C133.015,96.89,134.683,94.551,134.683,91.824z"/>
		</g>
	</g>
	<g>
		<g>
			<path style="fill:#ECECEC;" d="M300.207,79.693c0,0-27.685,15.465-52.186-2.334c0,0,1.89,71.352,52.186,94.536
				c50.296-23.185,52.186-94.536,52.186-94.536C327.893,95.158,300.207,79.693,300.207,79.693z"/>
			<polygon style="fill:#12B2FE;" points="318.315,117.78 308.215,117.78 308.215,93.803 291.559,129.451 301.658,129.451 
				301.658,153.43 			"/>
		</g>
		<path style="opacity:0.5;fill:#FFFFFF;" d="M305.852,82.188l-45.946,45.947c4.55,10.311,10.84,20.623,19.522,29.248l72.358-72.357
			c0.529-4.785,0.607-7.666,0.607-7.666C334.627,90.266,315.196,85.684,305.852,82.188z"/>
	</g>
	<g>
		<g>
			<rect x="71.854" y="128.938" style="fill:#E5A72C;" width="83" height="54.422"/>
			<polygon style="fill:#F6BD3A;" points="71.854,128.938 113.354,158.887 154.854,128.938 			"/>
		</g>
		<g>
			<path style="fill:#FFFFFF;" d="M125.911,159.118c0,6.935-5.621,12.556-12.557,12.556c-6.934,0-12.555-5.621-12.555-12.556
				c0-6.935,5.621-12.556,12.555-12.556C120.29,146.563,125.911,152.184,125.911,159.118z"/>
			<path style="fill:#FFFFFF;" d="M120.114,170.278c0,2.383-1.932,4.314-4.314,4.314h-4.89c-2.383,0-4.315-1.932-4.315-4.314v-4.026
				c0-2.383,1.932-4.314,4.315-4.314h4.89c2.383,0,4.314,1.932,4.314,4.314V170.278z"/>
			<g>
				<g>
					<path style="fill:#E5A72C;" d="M112.317,159.363c0.482-2.131-1.976-4.502-4.105-4.984c-2.131-0.481-4.248,0.854-4.73,2.984
						c-0.481,2.131,0.855,4.248,2.984,4.73C108.597,162.574,111.836,161.492,112.317,159.363z"/>
					<path style="fill:#E5A72C;" d="M123.227,157.363c-0.481-2.131-2.6-3.466-4.728-2.984c-2.131,0.482-4.59,2.854-4.107,4.984
						c0.482,2.129,3.722,3.211,5.852,2.73C122.374,161.611,123.71,159.494,123.227,157.363z"/>
					<path style="fill:#E5A72C;" d="M113.354,162.803c-1.072,0-1.941,1.246-1.941,2.318c0,1.072,0.869,1.222,1.941,1.222
						c1.072,0,1.942-0.149,1.942-1.222C115.297,164.049,114.427,162.803,113.354,162.803z"/>
				</g>
			</g>
		</g>
	</g>
	<g>
		<polygon style="fill:#ECECEC;" points="424.259,150.48 370.734,150.48 370.734,81.158 416.661,81.158 424.259,88.756 		"/>
		<g>
			<rect x="378.237" y="95.377" style="fill:#FFFFFF;" width="39.075" height="2.348"/>
			<rect x="378.237" y="105.127" style="fill:#FFFFFF;" width="39.075" height="2.348"/>
			<rect x="378.237" y="114.877" style="fill:#FFFFFF;" width="39.075" height="2.348"/>
			<rect x="378.237" y="124.627" style="fill:#FFFFFF;" width="39.075" height="2.348"/>
			<rect x="378.237" y="134.377" style="fill:#FFFFFF;" width="39.075" height="2.349"/>
		</g>
		<polygon style="fill:#F6F6F6;" points="416.661,81.158 416.661,88.756 424.259,88.756 		"/>
		<g>
			<path style="fill:#C5C5C5;" d="M398.782,99.402c-4.874,0-8.84,3.965-8.84,8.839v9.599c0,0.633,0.512,1.143,1.143,1.143
				c0.63,0,1.143-0.51,1.143-1.143v-9.599c0-3.614,2.939-6.555,6.555-6.555c3.243,0,5.938,2.372,6.456,5.47h1.217v1.379h-1.118
				v0.929c0,0.632,0.513,1.143,1.143,1.143c0.631,0,1.142-0.511,1.142-1.143v-1.223C407.621,103.367,403.656,99.402,398.782,99.402z
				"/>
			<g>
				<path style="fill:#F6BD3A;" d="M411.232,124.131c0,2.523-2.046,4.57-4.568,4.57H390.9c-2.522,0-4.568-2.047-4.568-4.57v-12.677
					c0-2.524,2.046-4.57,4.568-4.57h15.764c2.522,0,4.568,2.046,4.568,4.57V124.131z"/>
			</g>
			<path style="opacity:0.3;fill:#FFFFFF;" d="M406.664,106.884h-8.17l-12.162,12.161v5.086c0,2.523,2.046,4.57,4.568,4.57h0.664
				l19.21-19.209C410.038,107.953,408.481,106.884,406.664,106.884z"/>
			<path style="fill:#C18111;" d="M402.71,116.318c0-2.168-1.758-3.929-3.928-3.929s-3.928,1.761-3.928,3.929
				c0,1.635,1,3.037,2.422,3.627v3.248h3.012v-3.248C401.71,119.355,402.71,117.953,402.71,116.318z"/>
		</g>
	</g>
	<g>
		<g>
			<path style="fill:#F03554;" d="M187.837,123.193c-0.001,0.001-0.005,0.001-0.008,0h-33.975c-0.281,0-0.542-0.15-0.683-0.395
				c-0.142-0.244-0.142-0.545,0-0.789l16.987-29.424c0.141-0.244,0.4-0.395,0.683-0.395s0.543,0.15,0.685,0.395l16.936,29.336
				c0.104,0.135,0.164,0.302,0.164,0.482C188.626,122.84,188.273,123.193,187.837,123.193z"/>
		</g>
		<path style="fill:#FFFFFF;" d="M172.735,113.676h-3.777l-1.234-10.268h6.244L172.735,113.676z M172.735,115.543h-3.777v3.225
			h3.777V115.543z"/>
	</g>
	<g>
		<g>
			<path style="fill:#F03554;" d="M416.956,244.458c0,0.001-0.004,0.001-0.008,0h-33.974c-0.282,0-0.542-0.149-0.683-0.394
				c-0.142-0.244-0.142-0.544,0-0.788l16.986-29.425c0.141-0.243,0.401-0.394,0.684-0.394c0.281,0,0.543,0.15,0.684,0.394
				l16.936,29.337c0.103,0.135,0.163,0.301,0.163,0.482C417.745,244.105,417.393,244.458,416.956,244.458z"/>
		</g>
		<path style="fill:#FFFFFF;" d="M401.854,234.94h-3.777l-1.234-10.268h6.244L401.854,234.94z M401.854,236.808h-3.777v3.226h3.777
			V236.808z"/>
	</g>
	<g>
		<g>
			<path style="fill:#F03554;" d="M88.846,264.068c0,0.002-0.004,0.002-0.008,0H54.864c-0.282,0-0.542-0.148-0.683-0.395
				c-0.142-0.244-0.142-0.545,0-0.789l16.986-29.424c0.141-0.243,0.401-0.395,0.684-0.395c0.281,0,0.543,0.151,0.684,0.395
				l16.937,29.338c0.102,0.135,0.163,0.301,0.163,0.48C89.635,263.715,89.282,264.068,88.846,264.068z"/>
		</g>
		<path style="fill:#FFFFFF;" d="M73.744,254.551h-3.777l-1.234-10.268h6.244L73.744,254.551z M73.744,256.418h-3.777v3.225h3.777
			V256.418z"/>
	</g>
	
		<polyline style="fill:none;stroke:#D9D9D9;stroke-width:3;stroke-linecap:round;stroke-linejoin:round;stroke-miterlimit:10;" points="
		425.667,182.885 443.666,182.885 443.666,343.768 409.947,343.768 	"/>
	
		<polyline style="fill:none;stroke:#D9D9D9;stroke-width:3;stroke-linecap:round;stroke-linejoin:round;stroke-miterlimit:10;" points="
		77,225.343 50.394,225.343 50.394,64.459 100.8,64.459 	"/>
	
		<polyline style="fill:none;stroke:#D9D9D9;stroke-width:3;stroke-linecap:round;stroke-linejoin:round;stroke-miterlimit:10;" points="
		217.421,64.459 217.421,43.666 439.667,43.666 439.667,120.33 432.335,120.33 	"/>
</g>
</svg>
